<mxfile host="Electron" modified="2024-02-05T23:02:33.964Z" agent="Mozilla/5.0 (X11; Linux x86_64) AppleWebKit/537.36 (KHTML, like Gecko) draw.io/23.0.2 Chrome/120.0.6099.109 Electron/28.1.0 Safari/537.36" etag="FVxIFDmUUsLiJfz6wbcl" version="23.0.2" type="device" pages="5">
  <diagram name="Итеративный Левенштейн" id="RMhUP7ClpVE_5QwIDjEA">
    <mxGraphModel dx="1434" dy="870" grid="1" gridSize="10" guides="1" tooltips="1" connect="1" arrows="1" fold="1" page="1" pageScale="1" pageWidth="827" pageHeight="1169" math="0" shadow="0">
      <root>
        <mxCell id="0" />
        <mxCell id="1" parent="0" />
        <mxCell id="tVLGUBsvi6V1KElZKTm9-1" style="edgeStyle=orthogonalEdgeStyle;rounded=0;orthogonalLoop=1;jettySize=auto;html=1;exitX=0.5;exitY=1;exitDx=0;exitDy=0;exitPerimeter=0;entryX=0.5;entryY=0;entryDx=0;entryDy=0;endArrow=none;endFill=0;fontFamily=Times New Roman;" edge="1" parent="1" source="tVLGUBsvi6V1KElZKTm9-2" target="tVLGUBsvi6V1KElZKTm9-4">
          <mxGeometry relative="1" as="geometry" />
        </mxCell>
        <mxCell id="tVLGUBsvi6V1KElZKTm9-2" value="Начало" style="strokeWidth=1;html=1;shape=stencil(xVVNb4MwDP01HJmAaF17nFh37GWTdnap20YLCXKyfvz7hRrUUkpHc5nEAT/De36OrUQit1uoMMoSDSVG4i3Ksk+kUmpwhnzgM1uGJwmHew5nUw7BVlg4xnZAEpYKOWMdmW/cy5VrGKTeIklXZ8U8Sl79N/Uj8sJo7Umk0baTuch7MpDa/5scmCx5emaZYxNzVHmFEh1SBz2bWzAQZe/BSuk4pY8Apa6jVvcvpa/HldIwpXlI99JrsXRkBxcBxm7ITWcjDyxIrmV/3F1QM3tyo90NyIncI0MLKPIlFN8bMj96dbPICurl7iXadGl2eK5eXM33Pf8tg5L6gmEyfZwBqPAv1DC88C907JZ0iOEgbUzGQd2FDr0C2mDsaeK1gk0nZfeI1QXcHP3taicBhq9aNo7i/xyHnHChjMU7e+Dx3pSd0IHRFPnaEN6Z2bVUiu+moXXoEZxQvilPwC8=);whiteSpace=wrap;fontFamily=Times New Roman;" vertex="1" parent="1">
          <mxGeometry x="9.999987792968795" y="53.999975585937506" width="300" height="40" as="geometry" />
        </mxCell>
        <mxCell id="tVLGUBsvi6V1KElZKTm9-3" value="" style="strokeWidth=1;html=1;shape=mxgraph.flowchart.annotation_2;align=left;labelPosition=right;pointerEvents=1;fontFamily=Times New Roman;" vertex="1" parent="1">
          <mxGeometry x="271.25" y="50.5" width="17.5" height="47" as="geometry" />
        </mxCell>
        <mxCell id="tVLGUBsvi6V1KElZKTm9-4" value="Вычисление длин строк &lt;br&gt;str_1 и str_2" style="rounded=0;whiteSpace=wrap;html=1;fontFamily=Times New Roman;" vertex="1" parent="1">
          <mxGeometry x="79.9999877929688" y="103.9999755859375" width="160" height="50" as="geometry" />
        </mxCell>
        <mxCell id="tVLGUBsvi6V1KElZKTm9-5" style="edgeStyle=orthogonalEdgeStyle;rounded=0;orthogonalLoop=1;jettySize=auto;html=1;exitX=0.5;exitY=1;exitDx=0;exitDy=0;entryX=0.5;entryY=0;entryDx=0;entryDy=0;endArrow=none;endFill=0;fontFamily=Times New Roman;" edge="1" parent="1" source="tVLGUBsvi6V1KElZKTm9-4" target="tVLGUBsvi6V1KElZKTm9-7">
          <mxGeometry relative="1" as="geometry">
            <mxPoint x="157.49998779296857" y="213.99997558593748" as="sourcePoint" />
          </mxGeometry>
        </mxCell>
        <mxCell id="tVLGUBsvi6V1KElZKTm9-6" style="edgeStyle=orthogonalEdgeStyle;rounded=0;orthogonalLoop=1;jettySize=auto;html=1;exitX=0.5;exitY=1;exitDx=0;exitDy=0;entryX=0.5;entryY=0;entryDx=0;entryDy=0;endArrow=none;endFill=0;fontFamily=Times New Roman;" edge="1" parent="1" source="tVLGUBsvi6V1KElZKTm9-7" target="tVLGUBsvi6V1KElZKTm9-9">
          <mxGeometry relative="1" as="geometry" />
        </mxCell>
        <mxCell id="tVLGUBsvi6V1KElZKTm9-7" value="Создание строки кэша &lt;br&gt;row_1 как возраста-ющие расстояния&amp;nbsp;" style="shape=process;whiteSpace=wrap;html=1;backgroundOutline=1;fontFamily=Times New Roman;" vertex="1" parent="1">
          <mxGeometry x="79.9999877929688" y="166.9999755859375" width="160" height="50" as="geometry" />
        </mxCell>
        <mxCell id="tVLGUBsvi6V1KElZKTm9-8" style="edgeStyle=orthogonalEdgeStyle;rounded=0;orthogonalLoop=1;jettySize=auto;html=1;exitX=0.5;exitY=1;exitDx=0;exitDy=0;entryX=0.5;entryY=0;entryDx=0;entryDy=0;endArrow=none;endFill=0;fontFamily=Times New Roman;" edge="1" parent="1" source="tVLGUBsvi6V1KElZKTm9-9" target="tVLGUBsvi6V1KElZKTm9-11">
          <mxGeometry relative="1" as="geometry" />
        </mxCell>
        <mxCell id="tVLGUBsvi6V1KElZKTm9-9" value="Создание строки&lt;br&gt;кэша row_2 как нулевые расстояния" style="shape=process;whiteSpace=wrap;html=1;backgroundOutline=1;fontFamily=Times New Roman;" vertex="1" parent="1">
          <mxGeometry x="79.9999877929688" y="226.99997558593748" width="160" height="50" as="geometry" />
        </mxCell>
        <mxCell id="tVLGUBsvi6V1KElZKTm9-10" style="edgeStyle=orthogonalEdgeStyle;rounded=0;orthogonalLoop=1;jettySize=auto;html=1;exitX=0.5;exitY=1;exitDx=0;exitDy=0;entryX=0.5;entryY=0;entryDx=0;entryDy=0;endArrow=none;endFill=0;fontFamily=Times New Roman;" edge="1" parent="1" source="tVLGUBsvi6V1KElZKTm9-11" target="tVLGUBsvi6V1KElZKTm9-13">
          <mxGeometry relative="1" as="geometry" />
        </mxCell>
        <mxCell id="tVLGUBsvi6V1KElZKTm9-11" value="Цикл по&amp;nbsp;расстояниям&lt;br&gt;строки str_2&amp;nbsp;&amp;nbsp;" style="shape=loopLimit;whiteSpace=wrap;html=1;fontFamily=Times New Roman;" vertex="1" parent="1">
          <mxGeometry x="79.9999877929688" y="286.9999755859375" width="160" height="50" as="geometry" />
        </mxCell>
        <mxCell id="tVLGUBsvi6V1KElZKTm9-12" style="edgeStyle=orthogonalEdgeStyle;rounded=0;orthogonalLoop=1;jettySize=auto;html=1;exitX=0.5;exitY=1;exitDx=0;exitDy=0;entryX=0.5;entryY=0;entryDx=0;entryDy=0;endArrow=none;endFill=0;fontFamily=Times New Roman;" edge="1" parent="1" source="tVLGUBsvi6V1KElZKTm9-13" target="tVLGUBsvi6V1KElZKTm9-15">
          <mxGeometry relative="1" as="geometry" />
        </mxCell>
        <mxCell id="tVLGUBsvi6V1KElZKTm9-13" value="row_2[0] := i + 1" style="rounded=0;whiteSpace=wrap;html=1;fontFamily=Times New Roman;" vertex="1" parent="1">
          <mxGeometry x="79.9999877929688" y="346.9999755859375" width="160" height="50" as="geometry" />
        </mxCell>
        <mxCell id="tVLGUBsvi6V1KElZKTm9-14" style="edgeStyle=orthogonalEdgeStyle;rounded=0;orthogonalLoop=1;jettySize=auto;html=1;exitX=0.5;exitY=1;exitDx=0;exitDy=0;entryX=0.5;entryY=0;entryDx=0;entryDy=0;endArrow=none;endFill=0;fontFamily=Times New Roman;" edge="1" parent="1" source="tVLGUBsvi6V1KElZKTm9-15" target="tVLGUBsvi6V1KElZKTm9-17">
          <mxGeometry relative="1" as="geometry" />
        </mxCell>
        <mxCell id="tVLGUBsvi6V1KElZKTm9-15" value="Цикл по символам &lt;br&gt;строки str_1&amp;nbsp;&amp;nbsp;" style="shape=loopLimit;whiteSpace=wrap;html=1;fontFamily=Times New Roman;" vertex="1" parent="1">
          <mxGeometry x="79.9999877929688" y="406.9999755859375" width="160" height="50" as="geometry" />
        </mxCell>
        <mxCell id="aTHLNBqfE9Oym3DJ1feJ-7" style="edgeStyle=orthogonalEdgeStyle;rounded=0;orthogonalLoop=1;jettySize=auto;html=1;exitX=0.5;exitY=1;exitDx=0;exitDy=0;endArrow=none;endFill=0;" edge="1" parent="1" source="tVLGUBsvi6V1KElZKTm9-17" target="aTHLNBqfE9Oym3DJ1feJ-5">
          <mxGeometry relative="1" as="geometry" />
        </mxCell>
        <mxCell id="tVLGUBsvi6V1KElZKTm9-17" value="Вычисление стоимости удаления str_1 как&amp;nbsp;&lt;br&gt;row_1[j + 1] + 1" style="rounded=0;whiteSpace=wrap;html=1;fontFamily=Times New Roman;" vertex="1" parent="1">
          <mxGeometry x="79.9999877929688" y="466.9999755859375" width="160" height="50" as="geometry" />
        </mxCell>
        <mxCell id="tVLGUBsvi6V1KElZKTm9-18" style="edgeStyle=orthogonalEdgeStyle;rounded=0;orthogonalLoop=1;jettySize=auto;html=1;exitX=0.5;exitY=1;exitDx=0;exitDy=0;entryX=0.5;entryY=0;entryDx=0;entryDy=0;endArrow=none;endFill=0;fontFamily=Times New Roman;" edge="1" parent="1" target="tVLGUBsvi6V1KElZKTm9-24">
          <mxGeometry relative="1" as="geometry">
            <mxPoint x="484.9999877929688" y="286.9999755859376" as="sourcePoint" />
          </mxGeometry>
        </mxCell>
        <mxCell id="tVLGUBsvi6V1KElZKTm9-19" value="Вычисление стоимости&lt;br&gt;&amp;nbsp;вставки str_2 как&lt;br&gt;row_2[j] + 1&amp;nbsp;" style="rounded=0;whiteSpace=wrap;html=1;fontFamily=Times New Roman;" vertex="1" parent="1">
          <mxGeometry x="404.9999877929688" y="238.99997558593748" width="160" height="50" as="geometry" />
        </mxCell>
        <mxCell id="tVLGUBsvi6V1KElZKTm9-20" style="edgeStyle=orthogonalEdgeStyle;rounded=0;orthogonalLoop=1;jettySize=auto;html=1;exitX=0.5;exitY=1;exitDx=0;exitDy=0;entryX=0.5;entryY=0;entryDx=0;entryDy=0;endArrow=none;endFill=0;fontFamily=Times New Roman;" edge="1" parent="1" source="tVLGUBsvi6V1KElZKTm9-21" target="tVLGUBsvi6V1KElZKTm9-28">
          <mxGeometry relative="1" as="geometry" />
        </mxCell>
        <mxCell id="tVLGUBsvi6V1KElZKTm9-21" value="Вычисление стоимости замены&amp;nbsp;как&lt;br&gt;row_1[j]" style="rounded=0;whiteSpace=wrap;html=1;fontFamily=Times New Roman;" vertex="1" parent="1">
          <mxGeometry x="552.4999877929688" y="346.9999755859375" width="160" height="50" as="geometry" />
        </mxCell>
        <mxCell id="tVLGUBsvi6V1KElZKTm9-22" style="edgeStyle=orthogonalEdgeStyle;rounded=0;orthogonalLoop=1;jettySize=auto;html=1;exitX=1;exitY=0.5;exitDx=0;exitDy=0;entryX=0.5;entryY=0;entryDx=0;entryDy=0;endArrow=none;endFill=0;fontFamily=Times New Roman;" edge="1" parent="1" source="tVLGUBsvi6V1KElZKTm9-24" target="tVLGUBsvi6V1KElZKTm9-21">
          <mxGeometry relative="1" as="geometry" />
        </mxCell>
        <mxCell id="tVLGUBsvi6V1KElZKTm9-23" style="edgeStyle=orthogonalEdgeStyle;rounded=0;orthogonalLoop=1;jettySize=auto;html=1;exitX=0;exitY=0.5;exitDx=0;exitDy=0;entryX=0.5;entryY=0;entryDx=0;entryDy=0;endArrow=none;endFill=0;fontFamily=Times New Roman;" edge="1" parent="1" source="tVLGUBsvi6V1KElZKTm9-24" target="tVLGUBsvi6V1KElZKTm9-27">
          <mxGeometry relative="1" as="geometry" />
        </mxCell>
        <mxCell id="tVLGUBsvi6V1KElZKTm9-24" value="Расстояние&lt;br&gt;str_1[j-1] равно&lt;br&gt;str_2[i-1]?" style="rhombus;whiteSpace=wrap;html=1;fontFamily=Times New Roman;" vertex="1" parent="1">
          <mxGeometry x="404.9999877929688" y="296.9999755859375" width="160" height="50" as="geometry" />
        </mxCell>
        <mxCell id="tVLGUBsvi6V1KElZKTm9-25" value="да" style="text;html=1;align=center;verticalAlign=middle;resizable=0;points=[];autosize=1;strokeColor=none;fontFamily=Times New Roman;" vertex="1" parent="1">
          <mxGeometry x="604.9999877929688" y="291.9999755859375" width="30" height="30" as="geometry" />
        </mxCell>
        <mxCell id="tVLGUBsvi6V1KElZKTm9-26" style="edgeStyle=orthogonalEdgeStyle;rounded=0;orthogonalLoop=1;jettySize=auto;html=1;exitX=0.5;exitY=1;exitDx=0;exitDy=0;entryX=0.5;entryY=0;entryDx=0;entryDy=0;endArrow=none;endFill=0;fontFamily=Times New Roman;" edge="1" parent="1" source="tVLGUBsvi6V1KElZKTm9-27" target="tVLGUBsvi6V1KElZKTm9-28">
          <mxGeometry relative="1" as="geometry" />
        </mxCell>
        <mxCell id="tVLGUBsvi6V1KElZKTm9-27" value="Вычисление стоимости замены как&lt;br&gt;row_1[j] + 1" style="rounded=0;whiteSpace=wrap;html=1;fontFamily=Times New Roman;" vertex="1" parent="1">
          <mxGeometry x="262.4999877929688" y="346.9999755859375" width="160" height="50" as="geometry" />
        </mxCell>
        <mxCell id="aTHLNBqfE9Oym3DJ1feJ-1" style="edgeStyle=orthogonalEdgeStyle;rounded=0;orthogonalLoop=1;jettySize=auto;html=1;exitX=0.5;exitY=1;exitDx=0;exitDy=0;entryX=0.5;entryY=0;entryDx=0;entryDy=0;endArrow=none;endFill=0;" edge="1" parent="1" source="tVLGUBsvi6V1KElZKTm9-28" target="tVLGUBsvi6V1KElZKTm9-45">
          <mxGeometry relative="1" as="geometry" />
        </mxCell>
        <mxCell id="tVLGUBsvi6V1KElZKTm9-28" value="Нахождение минимума min_cost между стоимостями операций вставки, удаления и замены" style="rounded=0;whiteSpace=wrap;html=1;fontFamily=Times New Roman;" vertex="1" parent="1">
          <mxGeometry x="404.9999877929688" y="436.9999755859375" width="160" height="50" as="geometry" />
        </mxCell>
        <mxCell id="tVLGUBsvi6V1KElZKTm9-29" style="edgeStyle=orthogonalEdgeStyle;rounded=0;orthogonalLoop=1;jettySize=auto;html=1;exitX=0.5;exitY=1;exitDx=0;exitDy=0;endArrow=blockThin;endFill=1;fontFamily=Times New Roman;" edge="1" parent="1" source="tVLGUBsvi6V1KElZKTm9-15" target="tVLGUBsvi6V1KElZKTm9-15">
          <mxGeometry relative="1" as="geometry" />
        </mxCell>
        <mxCell id="tVLGUBsvi6V1KElZKTm9-30" style="edgeStyle=orthogonalEdgeStyle;rounded=0;orthogonalLoop=1;jettySize=auto;html=1;exitX=0.5;exitY=1;exitDx=0;exitDy=0;entryX=0.5;entryY=1;entryDx=0;entryDy=0;endArrow=none;endFill=0;fontFamily=Times New Roman;" edge="1" parent="1" source="tVLGUBsvi6V1KElZKTm9-31" target="tVLGUBsvi6V1KElZKTm9-41">
          <mxGeometry relative="1" as="geometry" />
        </mxCell>
        <mxCell id="tVLGUBsvi6V1KElZKTm9-31" value="Обмен значений строк &lt;br&gt;row_1 и row_2" style="rounded=0;whiteSpace=wrap;html=1;fontFamily=Times New Roman;" vertex="1" parent="1">
          <mxGeometry x="404.9999877929688" y="619.9999755859375" width="160" height="50" as="geometry" />
        </mxCell>
        <mxCell id="tVLGUBsvi6V1KElZKTm9-32" style="edgeStyle=orthogonalEdgeStyle;rounded=0;orthogonalLoop=1;jettySize=auto;html=1;exitX=0.5;exitY=0;exitDx=0;exitDy=0;entryX=0.5;entryY=0;entryDx=0;entryDy=0;endArrow=none;endFill=0;fontFamily=Times New Roman;" edge="1" parent="1" source="tVLGUBsvi6V1KElZKTm9-33" target="tVLGUBsvi6V1KElZKTm9-41">
          <mxGeometry relative="1" as="geometry" />
        </mxCell>
        <mxCell id="tVLGUBsvi6V1KElZKTm9-33" value="Нахождение минимального расстояния distance как row_1[-1]" style="rounded=0;whiteSpace=wrap;html=1;fontFamily=Times New Roman;" vertex="1" parent="1">
          <mxGeometry x="404.9999877929688" y="739.9999755859376" width="160" height="50" as="geometry" />
        </mxCell>
        <mxCell id="tVLGUBsvi6V1KElZKTm9-34" value="" style="endArrow=none;dashed=1;html=1;entryX=0;entryY=0.5;entryDx=0;entryDy=0;entryPerimeter=0;exitX=0.767;exitY=0.497;exitDx=0;exitDy=0;exitPerimeter=0;fontFamily=Times New Roman;" edge="1" parent="1" source="tVLGUBsvi6V1KElZKTm9-2" target="tVLGUBsvi6V1KElZKTm9-3">
          <mxGeometry width="50" height="50" relative="1" as="geometry">
            <mxPoint x="97.4999877929688" y="183.9999755859375" as="sourcePoint" />
            <mxPoint x="147.4999877929688" y="133.9999755859375" as="targetPoint" />
          </mxGeometry>
        </mxCell>
        <mxCell id="tVLGUBsvi6V1KElZKTm9-35" style="edgeStyle=orthogonalEdgeStyle;rounded=0;orthogonalLoop=1;jettySize=auto;html=1;exitX=0.5;exitY=0;exitDx=0;exitDy=0;exitPerimeter=0;entryX=0.5;entryY=1;entryDx=0;entryDy=0;endArrow=none;endFill=0;fontFamily=Times New Roman;" edge="1" parent="1" source="tVLGUBsvi6V1KElZKTm9-36" target="tVLGUBsvi6V1KElZKTm9-33">
          <mxGeometry relative="1" as="geometry" />
        </mxCell>
        <mxCell id="tVLGUBsvi6V1KElZKTm9-36" value="Конец" style="strokeWidth=1;html=1;shape=stencil(xVVNb4MwDP01HJmAaF17nFh37GWTdnap20YLCXKyfvz7hRrUUkpHc5nEAT/De36OrUQit1uoMMoSDSVG4i3Ksk+kUmpwhnzgM1uGJwmHew5nUw7BVlg4xnZAEpYKOWMdmW/cy5VrGKTeIklXZ8U8Sl79N/Uj8sJo7Umk0baTuch7MpDa/5scmCx5emaZYxNzVHmFEh1SBz2bWzAQZe/BSuk4pY8Apa6jVvcvpa/HldIwpXlI99JrsXRkBxcBxm7ITWcjDyxIrmV/3F1QM3tyo90NyIncI0MLKPIlFN8bMj96dbPICurl7iXadGl2eK5eXM33Pf8tg5L6gmEyfZwBqPAv1DC88C907JZ0iOEgbUzGQd2FDr0C2mDsaeK1gk0nZfeI1QXcHP3taicBhq9aNo7i/xyHnHChjMU7e+Dx3pSd0IHRFPnaEN6Z2bVUiu+moXXoEZxQvilPwC8=);whiteSpace=wrap;fontFamily=Times New Roman;" vertex="1" parent="1">
          <mxGeometry x="334.9999877929688" y="799.9999755859376" width="300" height="40" as="geometry" />
        </mxCell>
        <mxCell id="tVLGUBsvi6V1KElZKTm9-37" value="" style="group;fontFamily=Times New Roman;" vertex="1" connectable="0" parent="1">
          <mxGeometry x="404.9999877929688" y="559.9999755859375" width="160" height="50" as="geometry" />
        </mxCell>
        <mxCell id="tVLGUBsvi6V1KElZKTm9-38" value="" style="shape=loopLimit;whiteSpace=wrap;html=1;rotation=-180;fontFamily=Times New Roman;" vertex="1" parent="tVLGUBsvi6V1KElZKTm9-37">
          <mxGeometry width="160" height="50" as="geometry" />
        </mxCell>
        <mxCell id="tVLGUBsvi6V1KElZKTm9-39" value="Цикл по расстояниям&lt;br&gt;&amp;nbsp;строки str_1&amp;nbsp;&amp;nbsp;" style="text;html=1;align=center;verticalAlign=middle;resizable=0;points=[];autosize=1;strokeColor=none;fontFamily=Times New Roman;" vertex="1" parent="tVLGUBsvi6V1KElZKTm9-37">
          <mxGeometry x="15" y="5" width="130" height="40" as="geometry" />
        </mxCell>
        <mxCell id="tVLGUBsvi6V1KElZKTm9-40" value="" style="group;fontFamily=Times New Roman;" vertex="1" connectable="0" parent="1">
          <mxGeometry x="404.9999877929688" y="679.9999755859376" width="160" height="50" as="geometry" />
        </mxCell>
        <mxCell id="tVLGUBsvi6V1KElZKTm9-41" value="" style="shape=loopLimit;whiteSpace=wrap;html=1;rotation=-180;fontFamily=Times New Roman;" vertex="1" parent="tVLGUBsvi6V1KElZKTm9-40">
          <mxGeometry width="160" height="50" as="geometry" />
        </mxCell>
        <mxCell id="tVLGUBsvi6V1KElZKTm9-42" value="Цикл по расстояниям&lt;br style=&quot;border-color: var(--border-color);&quot;&gt;&lt;span style=&quot;&quot;&gt;строки str_2&amp;nbsp;&amp;nbsp;&lt;/span&gt;" style="text;html=1;align=center;verticalAlign=middle;resizable=0;points=[];autosize=1;strokeColor=none;fontFamily=Times New Roman;" vertex="1" parent="tVLGUBsvi6V1KElZKTm9-40">
          <mxGeometry x="19" y="5" width="130" height="40" as="geometry" />
        </mxCell>
        <mxCell id="tVLGUBsvi6V1KElZKTm9-43" style="edgeStyle=orthogonalEdgeStyle;rounded=0;orthogonalLoop=1;jettySize=auto;html=1;exitX=0.5;exitY=0;exitDx=0;exitDy=0;entryX=0.5;entryY=0;entryDx=0;entryDy=0;endArrow=none;endFill=0;fontFamily=Times New Roman;" edge="1" parent="1" source="tVLGUBsvi6V1KElZKTm9-38" target="tVLGUBsvi6V1KElZKTm9-31">
          <mxGeometry relative="1" as="geometry" />
        </mxCell>
        <mxCell id="tVLGUBsvi6V1KElZKTm9-44" value="&lt;font&gt;Итеративный алгоритм Левенштейна&amp;nbsp;&lt;br style=&quot;border-color: var(--border-color);&quot;&gt;&lt;span style=&quot;&quot;&gt;с двумя строками&lt;/span&gt;&lt;br style=&quot;border-color: var(--border-color);&quot;&gt;&lt;span style=&quot;&quot;&gt;Входные данные: str_1, str_2 - строки&lt;/span&gt;&lt;br style=&quot;border-color: var(--border-color);&quot;&gt;&lt;/font&gt;&lt;div style=&quot;&quot;&gt;&lt;span style=&quot;background-color: initial;&quot;&gt;&lt;font&gt;Выходные данные: distance - целое&lt;/font&gt;&lt;/span&gt;&lt;/div&gt;" style="text;html=1;align=left;verticalAlign=middle;resizable=0;points=[];autosize=1;strokeColor=none;fillColor=none;fontFamily=Times New Roman;" vertex="1" parent="1">
          <mxGeometry x="288.75" y="39" width="220" height="70" as="geometry" />
        </mxCell>
        <mxCell id="tVLGUBsvi6V1KElZKTm9-45" value="row_2[j+1] := min_cost" style="rounded=0;whiteSpace=wrap;html=1;fontFamily=Times New Roman;" vertex="1" parent="1">
          <mxGeometry x="404.9999877929688" y="499.9999755859375" width="160" height="50" as="geometry" />
        </mxCell>
        <mxCell id="tVLGUBsvi6V1KElZKTm9-46" value="" style="strokeWidth=1;html=1;shape=mxgraph.flowchart.annotation_2;align=left;labelPosition=right;pointerEvents=1;fontFamily=Times New Roman;" vertex="1" parent="1">
          <mxGeometry x="262.5" y="167" width="35" height="50" as="geometry" />
        </mxCell>
        <mxCell id="tVLGUBsvi6V1KElZKTm9-47" value="" style="endArrow=none;dashed=1;html=1;entryX=0;entryY=0.5;entryDx=0;entryDy=0;entryPerimeter=0;exitX=1;exitY=0.5;exitDx=0;exitDy=0;fontFamily=Times New Roman;" edge="1" parent="1" source="tVLGUBsvi6V1KElZKTm9-7" target="tVLGUBsvi6V1KElZKTm9-46">
          <mxGeometry width="50" height="50" relative="1" as="geometry">
            <mxPoint x="240.5" y="187" as="sourcePoint" />
            <mxPoint x="147.4999877929688" y="246.9999755859375" as="targetPoint" />
          </mxGeometry>
        </mxCell>
        <mxCell id="tVLGUBsvi6V1KElZKTm9-48" value="&lt;font face=&quot;Times New Roman&quot;&gt;от 0 до длины строки&lt;br&gt;&lt;/font&gt;&lt;div style=&quot;text-align: left;&quot;&gt;&lt;span style=&quot;background-color: initial;&quot;&gt;&lt;font face=&quot;O93lFex5cOZNDcqPoUnG&quot;&gt;str_2&lt;/font&gt;&lt;/span&gt;&lt;/div&gt;" style="text;html=1;align=center;verticalAlign=middle;resizable=0;points=[];autosize=1;strokeColor=none;fillColor=none;" vertex="1" parent="1">
          <mxGeometry x="280" y="172" width="130" height="40" as="geometry" />
        </mxCell>
        <mxCell id="aTHLNBqfE9Oym3DJ1feJ-2" style="edgeStyle=orthogonalEdgeStyle;rounded=0;orthogonalLoop=1;jettySize=auto;html=1;exitX=0.5;exitY=1;exitDx=0;exitDy=0;entryX=0.5;entryY=-0.125;entryDx=0;entryDy=0;entryPerimeter=0;endArrow=none;endFill=0;" edge="1" parent="1" source="tVLGUBsvi6V1KElZKTm9-45" target="tVLGUBsvi6V1KElZKTm9-39">
          <mxGeometry relative="1" as="geometry" />
        </mxCell>
        <mxCell id="aTHLNBqfE9Oym3DJ1feJ-4" style="edgeStyle=orthogonalEdgeStyle;rounded=0;orthogonalLoop=1;jettySize=auto;html=1;exitX=0.5;exitY=1;exitDx=0;exitDy=0;entryX=0.5;entryY=0;entryDx=0;entryDy=0;endArrow=none;endFill=0;" edge="1" parent="1" source="aTHLNBqfE9Oym3DJ1feJ-3" target="tVLGUBsvi6V1KElZKTm9-19">
          <mxGeometry relative="1" as="geometry" />
        </mxCell>
        <mxCell id="aTHLNBqfE9Oym3DJ1feJ-3" value="А" style="ellipse;whiteSpace=wrap;html=1;aspect=fixed;" vertex="1" parent="1">
          <mxGeometry x="460" y="179" width="50" height="50" as="geometry" />
        </mxCell>
        <mxCell id="aTHLNBqfE9Oym3DJ1feJ-5" value="А" style="ellipse;whiteSpace=wrap;html=1;aspect=fixed;" vertex="1" parent="1">
          <mxGeometry x="135" y="531" width="50" height="50" as="geometry" />
        </mxCell>
      </root>
    </mxGraphModel>
  </diagram>
  <diagram id="NO0AV0WUgvP_2-h0E_Tg" name="Рекурсивный Левенштейн">
    <mxGraphModel dx="1195" dy="725" grid="1" gridSize="10" guides="1" tooltips="1" connect="1" arrows="1" fold="1" page="1" pageScale="1" pageWidth="827" pageHeight="1169" math="0" shadow="0">
      <root>
        <mxCell id="0" />
        <mxCell id="1" parent="0" />
        <mxCell id="yZoytWDPdXy8uYUPqVOL-1" style="edgeStyle=orthogonalEdgeStyle;rounded=0;orthogonalLoop=1;jettySize=auto;html=1;exitX=0.5;exitY=1;exitDx=0;exitDy=0;exitPerimeter=0;entryX=0.5;entryY=0;entryDx=0;entryDy=0;endArrow=none;endFill=0;fontFamily=Times New Roman;fontSize=14;" edge="1" parent="1" source="yZoytWDPdXy8uYUPqVOL-2" target="yZoytWDPdXy8uYUPqVOL-7">
          <mxGeometry relative="1" as="geometry" />
        </mxCell>
        <mxCell id="yZoytWDPdXy8uYUPqVOL-2" value="Начало" style="strokeWidth=1;html=1;shape=stencil(xVVNb4MwDP01HJmAaF17nFh37GWTdnap20YLCXKyfvz7hRrUUkpHc5nEAT/De36OrUQit1uoMMoSDSVG4i3Ksk+kUmpwhnzgM1uGJwmHew5nUw7BVlg4xnZAEpYKOWMdmW/cy5VrGKTeIklXZ8U8Sl79N/Uj8sJo7Umk0baTuch7MpDa/5scmCx5emaZYxNzVHmFEh1SBz2bWzAQZe/BSuk4pY8Apa6jVvcvpa/HldIwpXlI99JrsXRkBxcBxm7ITWcjDyxIrmV/3F1QM3tyo90NyIncI0MLKPIlFN8bMj96dbPICurl7iXadGl2eK5eXM33Pf8tg5L6gmEyfZwBqPAv1DC88C907JZ0iOEgbUzGQd2FDr0C2mDsaeK1gk0nZfeI1QXcHP3taicBhq9aNo7i/xyHnHChjMU7e+Dx3pSd0IHRFPnaEN6Z2bVUiu+moXXoEZxQvilPwC8=);whiteSpace=wrap;fontFamily=Times New Roman;fontSize=14;" vertex="1" parent="1">
          <mxGeometry x="260" y="20" width="300" height="40" as="geometry" />
        </mxCell>
        <mxCell id="yZoytWDPdXy8uYUPqVOL-3" style="edgeStyle=orthogonalEdgeStyle;rounded=0;orthogonalLoop=1;jettySize=auto;html=1;exitX=0;exitY=0.5;exitDx=0;exitDy=0;exitPerimeter=0;endArrow=none;endFill=0;dashed=1;fontFamily=Times New Roman;fontSize=14;" edge="1" parent="1" source="yZoytWDPdXy8uYUPqVOL-4">
          <mxGeometry relative="1" as="geometry">
            <mxPoint x="489" y="40" as="targetPoint" />
            <Array as="points">
              <mxPoint x="489" y="40" />
            </Array>
          </mxGeometry>
        </mxCell>
        <mxCell id="yZoytWDPdXy8uYUPqVOL-4" value="Рекурсивный алгоритм &lt;br style=&quot;font-size: 14px;&quot;&gt;Левенштейна&amp;nbsp;без кэша&lt;br style=&quot;font-size: 14px;&quot;&gt;Входные данные: str_1, str_2 - строки&lt;br style=&quot;font-size: 14px;&quot;&gt;Выходные данные: distance - целое" style="strokeWidth=1;html=1;shape=mxgraph.flowchart.annotation_2;align=left;labelPosition=right;pointerEvents=1;fontFamily=Times New Roman;fontSize=14;" vertex="1" parent="1">
          <mxGeometry x="540" y="10" width="50" height="60" as="geometry" />
        </mxCell>
        <mxCell id="yZoytWDPdXy8uYUPqVOL-5" style="edgeStyle=orthogonalEdgeStyle;rounded=0;orthogonalLoop=1;jettySize=auto;html=1;exitX=1;exitY=0.5;exitDx=0;exitDy=0;entryX=0.5;entryY=0;entryDx=0;entryDy=0;endArrow=none;endFill=0;fontFamily=Times New Roman;fontSize=14;" edge="1" parent="1" source="yZoytWDPdXy8uYUPqVOL-7" target="yZoytWDPdXy8uYUPqVOL-8">
          <mxGeometry relative="1" as="geometry" />
        </mxCell>
        <mxCell id="yZoytWDPdXy8uYUPqVOL-6" style="edgeStyle=orthogonalEdgeStyle;rounded=0;orthogonalLoop=1;jettySize=auto;html=1;exitX=0;exitY=0.5;exitDx=0;exitDy=0;entryX=0.5;entryY=0;entryDx=0;entryDy=0;endArrow=none;endFill=0;fontFamily=Times New Roman;fontSize=14;" edge="1" parent="1" source="yZoytWDPdXy8uYUPqVOL-7" target="yZoytWDPdXy8uYUPqVOL-14">
          <mxGeometry relative="1" as="geometry">
            <mxPoint x="230" y="160" as="targetPoint" />
          </mxGeometry>
        </mxCell>
        <mxCell id="yZoytWDPdXy8uYUPqVOL-7" value="&lt;font style=&quot;font-size: 14px;&quot;&gt;Длина строки str_1&lt;br style=&quot;font-size: 14px;&quot;&gt;или&amp;nbsp;str_2 равна 0?&lt;/font&gt;" style="rhombus;whiteSpace=wrap;html=1;fontFamily=Times New Roman;fontSize=14;" vertex="1" parent="1">
          <mxGeometry x="330" y="80" width="160" height="60" as="geometry" />
        </mxCell>
        <mxCell id="yZoytWDPdXy8uYUPqVOL-8" value="len_str_1 := длина str_1&lt;br style=&quot;font-size: 14px;&quot;&gt;len_str_2 := длина str_2&amp;nbsp;" style="rounded=0;whiteSpace=wrap;html=1;fontFamily=Times New Roman;fontSize=14;" vertex="1" parent="1">
          <mxGeometry x="580" y="320" width="160" height="60" as="geometry" />
        </mxCell>
        <mxCell id="yZoytWDPdXy8uYUPqVOL-9" value="да" style="text;html=1;align=center;verticalAlign=middle;resizable=0;points=[];autosize=1;strokeColor=none;fontFamily=Times New Roman;fontSize=14;" vertex="1" parent="1">
          <mxGeometry x="510" y="85" width="40" height="30" as="geometry" />
        </mxCell>
        <mxCell id="yZoytWDPdXy8uYUPqVOL-10" style="edgeStyle=orthogonalEdgeStyle;rounded=0;orthogonalLoop=1;jettySize=auto;html=1;exitX=0.5;exitY=1;exitDx=0;exitDy=0;endArrow=none;endFill=0;fontFamily=Times New Roman;fontSize=14;" edge="1" parent="1" source="yZoytWDPdXy8uYUPqVOL-11">
          <mxGeometry relative="1" as="geometry">
            <mxPoint x="410" y="620" as="targetPoint" />
            <Array as="points">
              <mxPoint x="660" y="610" />
              <mxPoint x="410" y="610" />
            </Array>
          </mxGeometry>
        </mxCell>
        <mxCell id="yZoytWDPdXy8uYUPqVOL-11" value="Расстояние&lt;br style=&quot;font-size: 14px;&quot;&gt;distance := &lt;br style=&quot;font-size: 14px;&quot;&gt;|len_str_1 - len_str_2|" style="rounded=0;whiteSpace=wrap;html=1;fontFamily=Times New Roman;fontSize=14;" vertex="1" parent="1">
          <mxGeometry x="580" y="390" width="160" height="60" as="geometry" />
        </mxCell>
        <mxCell id="yZoytWDPdXy8uYUPqVOL-12" style="edgeStyle=orthogonalEdgeStyle;rounded=0;orthogonalLoop=1;jettySize=auto;html=1;exitX=1;exitY=0.5;exitDx=0;exitDy=0;entryX=0.5;entryY=0;entryDx=0;entryDy=0;endArrow=none;endFill=0;fontFamily=Times New Roman;fontSize=14;" edge="1" parent="1" source="yZoytWDPdXy8uYUPqVOL-14" target="yZoytWDPdXy8uYUPqVOL-16">
          <mxGeometry relative="1" as="geometry" />
        </mxCell>
        <mxCell id="yZoytWDPdXy8uYUPqVOL-13" style="edgeStyle=orthogonalEdgeStyle;rounded=0;orthogonalLoop=1;jettySize=auto;html=1;exitX=0;exitY=0.5;exitDx=0;exitDy=0;entryX=0.5;entryY=0;entryDx=0;entryDy=0;endArrow=none;endFill=0;fontFamily=Times New Roman;fontSize=14;" edge="1" parent="1" source="yZoytWDPdXy8uYUPqVOL-14" target="yZoytWDPdXy8uYUPqVOL-18">
          <mxGeometry relative="1" as="geometry" />
        </mxCell>
        <mxCell id="yZoytWDPdXy8uYUPqVOL-14" value="&lt;span style=&quot;font-size: 14px;&quot;&gt;str[-1] равен str_2[-1]?&lt;/span&gt;" style="rhombus;whiteSpace=wrap;html=1;fontFamily=Times New Roman;fontSize=14;" vertex="1" parent="1">
          <mxGeometry x="160" y="150" width="180" height="60" as="geometry" />
        </mxCell>
        <mxCell id="yZoytWDPdXy8uYUPqVOL-15" style="edgeStyle=orthogonalEdgeStyle;rounded=0;orthogonalLoop=1;jettySize=auto;html=1;exitX=0.5;exitY=1;exitDx=0;exitDy=0;entryX=0.5;entryY=0;entryDx=0;entryDy=0;endArrow=none;endFill=0;fontFamily=Times New Roman;fontSize=14;" edge="1" parent="1" source="yZoytWDPdXy8uYUPqVOL-16" target="yZoytWDPdXy8uYUPqVOL-21">
          <mxGeometry relative="1" as="geometry">
            <Array as="points">
              <mxPoint x="400" y="300" />
              <mxPoint x="230" y="300" />
            </Array>
          </mxGeometry>
        </mxCell>
        <mxCell id="yZoytWDPdXy8uYUPqVOL-16" value="Совпадение&lt;br style=&quot;font-size: 14px;&quot;&gt;match := 0" style="rounded=0;whiteSpace=wrap;html=1;fontFamily=Times New Roman;fontSize=14;" vertex="1" parent="1">
          <mxGeometry x="350" y="210" width="160" height="60" as="geometry" />
        </mxCell>
        <mxCell id="yZoytWDPdXy8uYUPqVOL-17" style="edgeStyle=orthogonalEdgeStyle;rounded=0;orthogonalLoop=1;jettySize=auto;html=1;entryX=0.5;entryY=0;entryDx=0;entryDy=0;endArrow=none;endFill=0;fontFamily=Times New Roman;fontSize=14;" edge="1" parent="1" source="yZoytWDPdXy8uYUPqVOL-18" target="yZoytWDPdXy8uYUPqVOL-21">
          <mxGeometry relative="1" as="geometry">
            <Array as="points">
              <mxPoint x="90" y="300" />
              <mxPoint x="250" y="300" />
            </Array>
          </mxGeometry>
        </mxCell>
        <mxCell id="yZoytWDPdXy8uYUPqVOL-18" value="Совпадение&lt;br style=&quot;font-size: 14px;&quot;&gt;match := 1" style="rounded=0;whiteSpace=wrap;html=1;fontFamily=Times New Roman;fontSize=14;" vertex="1" parent="1">
          <mxGeometry x="10" y="210" width="160" height="60" as="geometry" />
        </mxCell>
        <mxCell id="yZoytWDPdXy8uYUPqVOL-19" value="да" style="text;html=1;align=center;verticalAlign=middle;resizable=0;points=[];autosize=1;strokeColor=none;fontFamily=Times New Roman;fontSize=14;" vertex="1" parent="1">
          <mxGeometry x="335" y="155" width="40" height="30" as="geometry" />
        </mxCell>
        <mxCell id="yZoytWDPdXy8uYUPqVOL-20" style="edgeStyle=orthogonalEdgeStyle;rounded=0;orthogonalLoop=1;jettySize=auto;html=1;exitX=0.5;exitY=1;exitDx=0;exitDy=0;entryX=0.5;entryY=0;entryDx=0;entryDy=0;endArrow=none;endFill=0;fontFamily=Times New Roman;fontSize=14;" edge="1" parent="1" source="yZoytWDPdXy8uYUPqVOL-21" target="yZoytWDPdXy8uYUPqVOL-22">
          <mxGeometry relative="1" as="geometry" />
        </mxCell>
        <mxCell id="yZoytWDPdXy8uYUPqVOL-21" value="&lt;br style=&quot;font-size: 14px;&quot;&gt;Стоимость insert := Левенштейн(&lt;br style=&quot;font-size: 14px;&quot;&gt;str_1, str_2[:-1]) + 1&lt;br style=&quot;font-size: 14px;&quot;&gt;&amp;nbsp;" style="shape=process;whiteSpace=wrap;html=1;backgroundOutline=1;fontFamily=Times New Roman;fontSize=14;" vertex="1" parent="1">
          <mxGeometry x="170" y="320" width="160" height="60" as="geometry" />
        </mxCell>
        <mxCell id="yZoytWDPdXy8uYUPqVOL-22" value="&lt;br style=&quot;font-size: 14px;&quot;&gt;Стоимость delete := Левенштейн(&lt;br style=&quot;font-size: 14px;&quot;&gt;str_1[:-1], str_2) + 1&lt;br style=&quot;font-size: 14px;&quot;&gt;&amp;nbsp;" style="shape=process;whiteSpace=wrap;html=1;backgroundOutline=1;fontFamily=Times New Roman;fontSize=14;" vertex="1" parent="1">
          <mxGeometry x="170" y="390" width="160" height="60" as="geometry" />
        </mxCell>
        <mxCell id="yZoytWDPdXy8uYUPqVOL-23" style="edgeStyle=orthogonalEdgeStyle;rounded=0;orthogonalLoop=1;jettySize=auto;html=1;exitX=0.5;exitY=0;exitDx=0;exitDy=0;entryX=0.5;entryY=1;entryDx=0;entryDy=0;endArrow=none;endFill=0;fontFamily=Times New Roman;fontSize=14;" edge="1" parent="1" source="yZoytWDPdXy8uYUPqVOL-24" target="yZoytWDPdXy8uYUPqVOL-22">
          <mxGeometry relative="1" as="geometry" />
        </mxCell>
        <mxCell id="yZoytWDPdXy8uYUPqVOL-24" value="&lt;br style=&quot;font-size: 14px;&quot;&gt;Стоимость replace := Левенштейн(&lt;br style=&quot;font-size: 14px;&quot;&gt;str_1[:-1], str_2[:-1]) + match&lt;br style=&quot;font-size: 14px;&quot;&gt;&amp;nbsp;" style="shape=process;whiteSpace=wrap;html=1;backgroundOutline=1;fontFamily=Times New Roman;fontSize=14;" vertex="1" parent="1">
          <mxGeometry x="170" y="460" width="160" height="60" as="geometry" />
        </mxCell>
        <mxCell id="yZoytWDPdXy8uYUPqVOL-25" style="edgeStyle=orthogonalEdgeStyle;rounded=0;orthogonalLoop=1;jettySize=auto;html=1;exitX=0.5;exitY=1;exitDx=0;exitDy=0;entryX=0.5;entryY=0;entryDx=0;entryDy=0;entryPerimeter=0;endArrow=none;endFill=0;fontFamily=Times New Roman;fontSize=14;" edge="1" parent="1" source="yZoytWDPdXy8uYUPqVOL-27" target="yZoytWDPdXy8uYUPqVOL-28">
          <mxGeometry relative="1" as="geometry">
            <Array as="points">
              <mxPoint x="250" y="610" />
              <mxPoint x="410" y="610" />
            </Array>
          </mxGeometry>
        </mxCell>
        <mxCell id="yZoytWDPdXy8uYUPqVOL-26" style="edgeStyle=orthogonalEdgeStyle;rounded=0;orthogonalLoop=1;jettySize=auto;html=1;exitX=0.5;exitY=0;exitDx=0;exitDy=0;entryX=0.5;entryY=1;entryDx=0;entryDy=0;endArrow=none;endFill=0;fontFamily=Times New Roman;fontSize=14;" edge="1" parent="1" source="yZoytWDPdXy8uYUPqVOL-27" target="yZoytWDPdXy8uYUPqVOL-24">
          <mxGeometry relative="1" as="geometry" />
        </mxCell>
        <mxCell id="yZoytWDPdXy8uYUPqVOL-27" value="Расстояние&lt;br style=&quot;font-size: 14px;&quot;&gt;distance := min(insert, delete, replace)" style="rounded=0;whiteSpace=wrap;html=1;fontFamily=Times New Roman;fontSize=14;" vertex="1" parent="1">
          <mxGeometry x="170" y="535" width="160" height="60" as="geometry" />
        </mxCell>
        <mxCell id="yZoytWDPdXy8uYUPqVOL-28" value="Конец" style="strokeWidth=1;html=1;shape=stencil(xVVNb4MwDP01HJmAaF17nFh37GWTdnap20YLCXKyfvz7hRrUUkpHc5nEAT/De36OrUQit1uoMMoSDSVG4i3Ksk+kUmpwhnzgM1uGJwmHew5nUw7BVlg4xnZAEpYKOWMdmW/cy5VrGKTeIklXZ8U8Sl79N/Uj8sJo7Umk0baTuch7MpDa/5scmCx5emaZYxNzVHmFEh1SBz2bWzAQZe/BSuk4pY8Apa6jVvcvpa/HldIwpXlI99JrsXRkBxcBxm7ITWcjDyxIrmV/3F1QM3tyo90NyIncI0MLKPIlFN8bMj96dbPICurl7iXadGl2eK5eXM33Pf8tg5L6gmEyfZwBqPAv1DC88C907JZ0iOEgbUzGQd2FDr0C2mDsaeK1gk0nZfeI1QXcHP3taicBhq9aNo7i/xyHnHChjMU7e+Dx3pSd0IHRFPnaEN6Z2bVUiu+moXXoEZxQvilPwC8=);whiteSpace=wrap;fontFamily=Times New Roman;fontSize=14;" vertex="1" parent="1">
          <mxGeometry x="260" y="630" width="300" height="40" as="geometry" />
        </mxCell>
      </root>
    </mxGraphModel>
  </diagram>
  <diagram id="O2yl4uOJP98n6BKvYOAo" name="Рекурсивный Левенштейн с матрицей 1">
    <mxGraphModel dx="1434" dy="870" grid="1" gridSize="10" guides="1" tooltips="1" connect="1" arrows="1" fold="1" page="1" pageScale="1" pageWidth="827" pageHeight="1169" math="0" shadow="0">
      <root>
        <mxCell id="0" />
        <mxCell id="1" parent="0" />
        <mxCell id="2PyqKT8MQhvnvrq4YZZJ-1" value="да" style="text;html=1;align=center;verticalAlign=middle;resizable=0;points=[];autosize=1;strokeColor=none;fontFamily=Times New Roman;fontSize=16;" vertex="1" parent="1">
          <mxGeometry x="440" y="295" width="40" height="30" as="geometry" />
        </mxCell>
        <mxCell id="2PyqKT8MQhvnvrq4YZZJ-2" value="да" style="text;html=1;align=center;verticalAlign=middle;resizable=0;points=[];autosize=1;strokeColor=none;fontFamily=Times New Roman;fontSize=16;" vertex="1" parent="1">
          <mxGeometry x="310" y="395" width="40" height="30" as="geometry" />
        </mxCell>
        <mxCell id="2PyqKT8MQhvnvrq4YZZJ-3" value="&lt;font style=&quot;font-size: 16px;&quot;&gt;Начало&lt;/font&gt;" style="strokeWidth=1;html=1;shape=stencil(xVVNb4MwDP01HJmAaF17nFh37GWTdnap20YLCXKyfvz7hRrUUkpHc5nEAT/De36OrUQit1uoMMoSDSVG4i3Ksk+kUmpwhnzgM1uGJwmHew5nUw7BVlg4xnZAEpYKOWMdmW/cy5VrGKTeIklXZ8U8Sl79N/Uj8sJo7Umk0baTuch7MpDa/5scmCx5emaZYxNzVHmFEh1SBz2bWzAQZe/BSuk4pY8Apa6jVvcvpa/HldIwpXlI99JrsXRkBxcBxm7ITWcjDyxIrmV/3F1QM3tyo90NyIncI0MLKPIlFN8bMj96dbPICurl7iXadGl2eK5eXM33Pf8tg5L6gmEyfZwBqPAv1DC88C907JZ0iOEgbUzGQd2FDr0C2mDsaeK1gk0nZfeI1QXcHP3taicBhq9aNo7i/xyHnHChjMU7e+Dx3pSd0IHRFPnaEN6Z2bVUiu+moXXoEZxQvilPwC8=);whiteSpace=wrap;fontFamily=Times New Roman;fontSize=16;" vertex="1" parent="1">
          <mxGeometry x="318" y="125" width="300" height="40" as="geometry" />
        </mxCell>
        <mxCell id="2PyqKT8MQhvnvrq4YZZJ-4" style="edgeStyle=orthogonalEdgeStyle;rounded=0;orthogonalLoop=1;jettySize=auto;html=1;exitX=0;exitY=0.5;exitDx=0;exitDy=0;exitPerimeter=0;endArrow=none;endFill=0;dashed=1;fontFamily=Times New Roman;fontSize=16;" edge="1" parent="1" source="2PyqKT8MQhvnvrq4YZZJ-5">
          <mxGeometry x="70" y="140" as="geometry">
            <mxPoint x="550" y="145" as="targetPoint" />
            <Array as="points" />
            <mxPoint x="598" y="160" as="sourcePoint" />
          </mxGeometry>
        </mxCell>
        <mxCell id="2PyqKT8MQhvnvrq4YZZJ-5" value="&lt;font style=&quot;font-size: 16px;&quot;&gt;Рекурсивный алгоритм &lt;br style=&quot;font-size: 16px;&quot;&gt;Левенштейна с матрицей&lt;br style=&quot;font-size: 16px;&quot;&gt;Входные данные: str_1, &lt;br style=&quot;font-size: 16px;&quot;&gt;str_2 - строки,&lt;br style=&quot;font-size: 16px;&quot;&gt;i, j - длины подстроки (целое), &lt;br&gt;matrix - матрица&lt;br style=&quot;font-size: 16px;&quot;&gt;Выходные данные: &lt;br style=&quot;font-size: 16px;&quot;&gt;distance - целое,&amp;nbsp;matix - матрица&lt;/font&gt;" style="strokeWidth=1;html=1;shape=mxgraph.flowchart.annotation_2;align=left;labelPosition=right;pointerEvents=1;fontFamily=Times New Roman;fontSize=16;" vertex="1" parent="1">
          <mxGeometry x="598" y="65" width="50" height="160" as="geometry" />
        </mxCell>
        <mxCell id="2PyqKT8MQhvnvrq4YZZJ-6" value="&lt;font style=&quot;font-size: 16px;&quot;&gt;matrix[i][j] не &lt;br style=&quot;font-size: 16px;&quot;&gt;равно -1?&lt;/font&gt;" style="rhombus;whiteSpace=wrap;html=1;fontFamily=Times New Roman;fontSize=16;" vertex="1" parent="1">
          <mxGeometry x="120" y="390" width="155" height="70" as="geometry" />
        </mxCell>
        <mxCell id="2PyqKT8MQhvnvrq4YZZJ-7" value="&lt;font style=&quot;font-size: 16px;&quot;&gt;Конец&lt;/font&gt;" style="strokeWidth=1;html=1;shape=stencil(xVVNb4MwDP01HJmAaF17nFh37GWTdnap20YLCXKyfvz7hRrUUkpHc5nEAT/De36OrUQit1uoMMoSDSVG4i3Ksk+kUmpwhnzgM1uGJwmHew5nUw7BVlg4xnZAEpYKOWMdmW/cy5VrGKTeIklXZ8U8Sl79N/Uj8sJo7Umk0baTuch7MpDa/5scmCx5emaZYxNzVHmFEh1SBz2bWzAQZe/BSuk4pY8Apa6jVvcvpa/HldIwpXlI99JrsXRkBxcBxm7ITWcjDyxIrmV/3F1QM3tyo90NyIncI0MLKPIlFN8bMj96dbPICurl7iXadGl2eK5eXM33Pf8tg5L6gmEyfZwBqPAv1DC88C907JZ0iOEgbUzGQd2FDr0C2mDsaeK1gk0nZfeI1QXcHP3taicBhq9aNo7i/xyHnHChjMU7e+Dx3pSd0IHRFPnaEN6Z2bVUiu+moXXoEZxQvilPwC8=);whiteSpace=wrap;fontFamily=Times New Roman;fontSize=16;" vertex="1" parent="1">
          <mxGeometry x="310" y="800" width="300" height="40" as="geometry" />
        </mxCell>
        <mxCell id="2PyqKT8MQhvnvrq4YZZJ-8" style="edgeStyle=orthogonalEdgeStyle;rounded=0;orthogonalLoop=1;jettySize=auto;html=1;endArrow=none;endFill=0;entryX=0.5;entryY=0;entryDx=0;entryDy=0;exitX=0;exitY=0.5;exitDx=0;exitDy=0;fontFamily=Times New Roman;fontSize=16;" edge="1" parent="1" source="2PyqKT8MQhvnvrq4YZZJ-9" target="2PyqKT8MQhvnvrq4YZZJ-6">
          <mxGeometry x="70" y="140" as="geometry">
            <mxPoint x="88" y="400" as="targetPoint" />
            <Array as="points">
              <mxPoint x="198" y="325" />
            </Array>
          </mxGeometry>
        </mxCell>
        <mxCell id="2PyqKT8MQhvnvrq4YZZJ-9" value="&lt;font style=&quot;font-size: 16px;&quot;&gt;j равен 0?&lt;/font&gt;" style="rhombus;whiteSpace=wrap;html=1;fontFamily=Times New Roman;fontSize=16;" vertex="1" parent="1">
          <mxGeometry x="240" y="290" width="155" height="70" as="geometry" />
        </mxCell>
        <mxCell id="2PyqKT8MQhvnvrq4YZZJ-10" style="edgeStyle=orthogonalEdgeStyle;rounded=0;orthogonalLoop=1;jettySize=auto;html=1;exitX=0;exitY=0.5;exitDx=0;exitDy=0;entryX=0.5;entryY=0;entryDx=0;entryDy=0;endArrow=none;endFill=0;fontFamily=Times New Roman;fontSize=16;" edge="1" parent="1" source="2PyqKT8MQhvnvrq4YZZJ-11" target="2PyqKT8MQhvnvrq4YZZJ-9">
          <mxGeometry x="70" y="140" as="geometry" />
        </mxCell>
        <mxCell id="2PyqKT8MQhvnvrq4YZZJ-11" value="&lt;font style=&quot;font-size: 16px;&quot;&gt;i равен нулю?&lt;/font&gt;" style="rhombus;whiteSpace=wrap;html=1;fontFamily=Times New Roman;fontSize=16;" vertex="1" parent="1">
          <mxGeometry x="390.5" y="220" width="155" height="70" as="geometry" />
        </mxCell>
        <mxCell id="2PyqKT8MQhvnvrq4YZZJ-12" style="edgeStyle=orthogonalEdgeStyle;rounded=0;orthogonalLoop=1;jettySize=auto;html=1;exitX=0.5;exitY=1;exitDx=0;exitDy=0;exitPerimeter=0;entryX=0.5;entryY=0;entryDx=0;entryDy=0;endArrow=none;endFill=0;fontFamily=Times New Roman;fontSize=16;" edge="1" parent="1" source="2PyqKT8MQhvnvrq4YZZJ-3" target="2PyqKT8MQhvnvrq4YZZJ-11">
          <mxGeometry x="70" y="140" as="geometry" />
        </mxCell>
        <mxCell id="2PyqKT8MQhvnvrq4YZZJ-13" style="edgeStyle=orthogonalEdgeStyle;rounded=0;orthogonalLoop=1;jettySize=auto;html=1;exitX=0.5;exitY=1;exitDx=0;exitDy=0;endArrow=none;endFill=0;fontFamily=Times New Roman;fontSize=16;" edge="1" parent="1" source="2PyqKT8MQhvnvrq4YZZJ-14">
          <mxGeometry relative="1" as="geometry">
            <mxPoint x="270" y="740" as="targetPoint" />
            <Array as="points">
              <mxPoint x="428" y="710" />
              <mxPoint x="270" y="710" />
              <mxPoint x="270" y="740" />
            </Array>
          </mxGeometry>
        </mxCell>
        <mxCell id="2PyqKT8MQhvnvrq4YZZJ-14" value="&lt;font style=&quot;font-size: 16px;&quot;&gt;distance := &lt;br&gt;matrix[i][j]&lt;/font&gt;" style="rounded=0;whiteSpace=wrap;html=1;fontFamily=Times New Roman;fontSize=16;" vertex="1" parent="1">
          <mxGeometry x="358" y="560" width="140" height="70" as="geometry" />
        </mxCell>
        <mxCell id="2PyqKT8MQhvnvrq4YZZJ-15" style="edgeStyle=orthogonalEdgeStyle;rounded=0;orthogonalLoop=1;jettySize=auto;html=1;exitX=1;exitY=0.5;exitDx=0;exitDy=0;endArrow=none;endFill=0;entryX=0.5;entryY=0;entryDx=0;entryDy=0;fontFamily=Times New Roman;fontSize=16;" edge="1" parent="1" source="2PyqKT8MQhvnvrq4YZZJ-6" target="2PyqKT8MQhvnvrq4YZZJ-14">
          <mxGeometry x="70" y="140" as="geometry">
            <mxPoint x="478" y="750" as="targetPoint" />
            <Array as="points">
              <mxPoint x="428" y="425" />
            </Array>
          </mxGeometry>
        </mxCell>
        <mxCell id="2PyqKT8MQhvnvrq4YZZJ-16" style="edgeStyle=orthogonalEdgeStyle;rounded=0;orthogonalLoop=1;jettySize=auto;html=1;exitX=0.5;exitY=1;exitDx=0;exitDy=0;endArrow=none;endFill=0;fontFamily=Times New Roman;fontSize=16;" edge="1" parent="1" source="2PyqKT8MQhvnvrq4YZZJ-17">
          <mxGeometry relative="1" as="geometry">
            <mxPoint x="410" y="770" as="targetPoint" />
            <Array as="points">
              <mxPoint x="530" y="510" />
              <mxPoint x="530" y="740" />
              <mxPoint x="410" y="740" />
            </Array>
          </mxGeometry>
        </mxCell>
        <mxCell id="2PyqKT8MQhvnvrq4YZZJ-17" value="&lt;font style=&quot;font-size: 16px;&quot;&gt;distance := i&lt;/font&gt;" style="rounded=0;whiteSpace=wrap;html=1;fontFamily=Times New Roman;fontSize=16;" vertex="1" parent="1">
          <mxGeometry x="458" y="440" width="140" height="70" as="geometry" />
        </mxCell>
        <mxCell id="2PyqKT8MQhvnvrq4YZZJ-18" style="edgeStyle=orthogonalEdgeStyle;rounded=0;orthogonalLoop=1;jettySize=auto;html=1;exitX=1;exitY=0.5;exitDx=0;exitDy=0;entryX=0.5;entryY=0;entryDx=0;entryDy=0;endArrow=none;endFill=0;fontFamily=Times New Roman;fontSize=16;" edge="1" parent="1" source="2PyqKT8MQhvnvrq4YZZJ-9" target="2PyqKT8MQhvnvrq4YZZJ-17">
          <mxGeometry x="70" y="140" as="geometry" />
        </mxCell>
        <mxCell id="2PyqKT8MQhvnvrq4YZZJ-19" style="edgeStyle=orthogonalEdgeStyle;rounded=0;orthogonalLoop=1;jettySize=auto;html=1;exitX=0.5;exitY=1;exitDx=0;exitDy=0;entryX=0.5;entryY=0;entryDx=0;entryDy=0;entryPerimeter=0;endArrow=none;endFill=0;fontFamily=Times New Roman;fontSize=16;" edge="1" parent="1" source="2PyqKT8MQhvnvrq4YZZJ-20" target="2PyqKT8MQhvnvrq4YZZJ-7">
          <mxGeometry relative="1" as="geometry">
            <Array as="points">
              <mxPoint x="660" y="770" />
              <mxPoint x="460" y="770" />
            </Array>
          </mxGeometry>
        </mxCell>
        <mxCell id="2PyqKT8MQhvnvrq4YZZJ-20" value="&lt;font style=&quot;font-size: 16px;&quot;&gt;distance := j&lt;/font&gt;" style="rounded=0;whiteSpace=wrap;html=1;fontFamily=Times New Roman;fontSize=16;" vertex="1" parent="1">
          <mxGeometry x="590" y="320" width="140" height="70" as="geometry" />
        </mxCell>
        <mxCell id="2PyqKT8MQhvnvrq4YZZJ-21" style="edgeStyle=orthogonalEdgeStyle;rounded=0;orthogonalLoop=1;jettySize=auto;html=1;exitX=1;exitY=0.5;exitDx=0;exitDy=0;entryX=0.5;entryY=0;entryDx=0;entryDy=0;endArrow=none;endFill=0;fontFamily=Times New Roman;fontSize=16;" edge="1" parent="1" source="2PyqKT8MQhvnvrq4YZZJ-11" target="2PyqKT8MQhvnvrq4YZZJ-20">
          <mxGeometry x="70" y="140" as="geometry" />
        </mxCell>
        <mxCell id="2PyqKT8MQhvnvrq4YZZJ-22" style="edgeStyle=orthogonalEdgeStyle;rounded=0;orthogonalLoop=1;jettySize=auto;html=1;exitX=0.5;exitY=1;exitDx=0;exitDy=0;endArrow=none;endFill=0;fontFamily=Times New Roman;fontSize=16;" edge="1" parent="1">
          <mxGeometry x="70" y="140" as="geometry">
            <mxPoint x="255" y="749.9999999999998" as="sourcePoint" />
            <mxPoint x="255" y="749.9999999999998" as="targetPoint" />
          </mxGeometry>
        </mxCell>
        <mxCell id="2PyqKT8MQhvnvrq4YZZJ-23" value="А" style="strokeWidth=1;html=1;shape=mxgraph.flowchart.start_2;whiteSpace=wrap;fontFamily=Times New Roman;fontSize=16;" vertex="1" parent="1">
          <mxGeometry x="70" y="560" width="50" height="50" as="geometry" />
        </mxCell>
        <mxCell id="2PyqKT8MQhvnvrq4YZZJ-24" style="edgeStyle=orthogonalEdgeStyle;rounded=0;orthogonalLoop=1;jettySize=auto;html=1;exitX=0;exitY=0.5;exitDx=0;exitDy=0;endArrow=none;endFill=0;entryX=0.5;entryY=0;entryDx=0;entryDy=0;entryPerimeter=0;fontFamily=Times New Roman;fontSize=16;" edge="1" parent="1" source="2PyqKT8MQhvnvrq4YZZJ-6" target="2PyqKT8MQhvnvrq4YZZJ-23">
          <mxGeometry x="70" y="140" as="geometry">
            <Array as="points">
              <mxPoint x="95" y="425" />
            </Array>
            <mxPoint x="80" y="670" as="targetPoint" />
          </mxGeometry>
        </mxCell>
        <mxCell id="2PyqKT8MQhvnvrq4YZZJ-25" style="edgeStyle=orthogonalEdgeStyle;rounded=0;orthogonalLoop=1;jettySize=auto;html=1;exitX=0.5;exitY=1;exitDx=0;exitDy=0;exitPerimeter=0;endArrow=none;endFill=0;entryX=0.5;entryY=0;entryDx=0;entryDy=0;entryPerimeter=0;fontFamily=Times New Roman;fontSize=16;" edge="1" parent="1" source="2PyqKT8MQhvnvrq4YZZJ-26" target="2PyqKT8MQhvnvrq4YZZJ-7">
          <mxGeometry relative="1" as="geometry">
            <mxPoint x="460" y="830" as="targetPoint" />
            <Array as="points">
              <mxPoint x="95" y="710" />
              <mxPoint x="270" y="710" />
              <mxPoint x="270" y="740" />
              <mxPoint x="410" y="740" />
              <mxPoint x="410" y="770" />
              <mxPoint x="460" y="770" />
            </Array>
          </mxGeometry>
        </mxCell>
        <mxCell id="2PyqKT8MQhvnvrq4YZZJ-26" value="Б" style="strokeWidth=1;html=1;shape=mxgraph.flowchart.start_2;whiteSpace=wrap;fontFamily=Times New Roman;fontSize=16;" vertex="1" parent="1">
          <mxGeometry x="70" y="630" width="50" height="50" as="geometry" />
        </mxCell>
        <mxCell id="2PyqKT8MQhvnvrq4YZZJ-27" value="да" style="text;html=1;align=center;verticalAlign=middle;resizable=0;points=[];autosize=1;strokeColor=none;fontFamily=Times New Roman;fontSize=16;" vertex="1" parent="1">
          <mxGeometry x="603" y="225" width="40" height="30" as="geometry" />
        </mxCell>
      </root>
    </mxGraphModel>
  </diagram>
  <diagram id="UU4bUhflhL6Dw3DHX0ot" name="Рекурсивный Левенштейн с матрицей 2">
    <mxGraphModel dx="1687" dy="-145" grid="1" gridSize="10" guides="1" tooltips="1" connect="1" arrows="1" fold="1" page="1" pageScale="1" pageWidth="827" pageHeight="1169" math="0" shadow="0">
      <root>
        <mxCell id="0" />
        <mxCell id="1" parent="0" />
        <mxCell id="MJfW1l7ggeRgLOib9L-R-22" value="да" style="text;html=1;align=center;verticalAlign=middle;resizable=0;points=[];autosize=1;strokeColor=none;fontFamily=Times New Roman;fontSize=15;" vertex="1" parent="1">
          <mxGeometry x="570" y="1280" width="40" height="30" as="geometry" />
        </mxCell>
        <mxCell id="MJfW1l7ggeRgLOib9L-R-2" value="&lt;font style=&quot;font-size: 15px;&quot;&gt;Расстояние&lt;br&gt;str_1[j-1] равно&lt;br style=&quot;font-size: 15px;&quot;&gt;str_2[i-1]?&lt;/font&gt;" style="rhombus;whiteSpace=wrap;html=1;fontFamily=Times New Roman;fontSize=15;" vertex="1" parent="1">
          <mxGeometry x="315.01748945147676" y="1269.9987323943662" width="208.93502109704644" height="84.78873239436618" as="geometry" />
        </mxCell>
        <mxCell id="MJfW1l7ggeRgLOib9L-R-3" value="&lt;font style=&quot;font-size: 15px;&quot;&gt;&lt;br style=&quot;font-size: 15px;&quot;&gt;Стоимость &lt;br&gt;insert =: ЛевенштейнМатрица(str_1, str_2[:-1],&amp;nbsp;i, j-1, matrix) + 1&lt;br style=&quot;font-size: 15px;&quot;&gt;&amp;nbsp;&lt;/font&gt;" style="shape=process;whiteSpace=wrap;html=1;backgroundOutline=1;fontFamily=Times New Roman;fontSize=15;" vertex="1" parent="1">
          <mxGeometry x="280" y="1522.82" width="260.89" height="84.79" as="geometry" />
        </mxCell>
        <mxCell id="MJfW1l7ggeRgLOib9L-R-4" value="&lt;font style=&quot;font-size: 15px;&quot;&gt;&lt;span style=&quot;color: rgb(0, 0, 0); font-style: normal; font-weight: 400; letter-spacing: normal; text-align: center; text-indent: 0px; text-transform: none; word-spacing: 0px; background-color: rgb(248, 249, 250); display: inline; float: none; font-size: 15px;&quot;&gt;Стоимость &lt;br&gt;delete:=&amp;nbsp;&lt;br&gt;&lt;/span&gt;&lt;span style=&quot;color: rgb(0, 0, 0); font-style: normal; font-weight: 400; letter-spacing: normal; text-align: center; text-indent: 0px; text-transform: none; word-spacing: 0px; background-color: rgb(248, 249, 250); display: inline; float: none; font-size: 15px;&quot;&gt;ЛевенштейнМатрица(&lt;/span&gt;&lt;span style=&quot;color: rgb(0, 0, 0); font-style: normal; font-weight: 400; letter-spacing: normal; text-align: center; text-indent: 0px; text-transform: none; word-spacing: 0px; background-color: rgb(248, 249, 250); display: inline; float: none; font-size: 15px;&quot;&gt;str_1[:-1], str_2,&amp;nbsp;&lt;/span&gt;&lt;span style=&quot;color: rgb(0, 0, 0); font-style: normal; font-weight: 400; letter-spacing: normal; text-align: center; text-indent: 0px; text-transform: none; word-spacing: 0px; background-color: rgb(248, 249, 250); display: inline; float: none; font-size: 15px;&quot;&gt;i-1, j, matrix) + 1&lt;/span&gt;&lt;/font&gt;" style="shape=process;whiteSpace=wrap;html=1;backgroundOutline=1;fontFamily=Times New Roman;fontSize=15;" vertex="1" parent="1">
          <mxGeometry x="280" y="1619.72" width="260.89" height="84.79" as="geometry" />
        </mxCell>
        <mxCell id="MJfW1l7ggeRgLOib9L-R-5" style="edgeStyle=orthogonalEdgeStyle;rounded=0;orthogonalLoop=1;jettySize=auto;html=1;exitX=0.5;exitY=1;exitDx=0;exitDy=0;entryX=0.5;entryY=0;entryDx=0;entryDy=0;endArrow=none;endFill=0;fontFamily=Times New Roman;fontSize=15;" edge="1" parent="1" source="MJfW1l7ggeRgLOib9L-R-3" target="MJfW1l7ggeRgLOib9L-R-4">
          <mxGeometry relative="1" as="geometry" />
        </mxCell>
        <mxCell id="MJfW1l7ggeRgLOib9L-R-6" value="&lt;div style=&quot;font-size: 15px;&quot;&gt;&lt;font style=&quot;font-size: 15px;&quot;&gt;&lt;br style=&quot;font-size: 15px;&quot;&gt;&lt;/font&gt;&lt;/div&gt;&lt;div style=&quot;font-size: 15px;&quot;&gt;&lt;span style=&quot;font-size: 15px;&quot;&gt;&lt;font style=&quot;font-size: 15px;&quot;&gt;Стоимость replace := ЛевенштейнМатрица&lt;/font&gt;&lt;/span&gt;&lt;span style=&quot;background-color: initial;&quot;&gt;(str_1[:-1], str_2[:-1], i-1, j-1, matrix) + 1&lt;/span&gt;&lt;/div&gt;&lt;div style=&quot;font-size: 15px;&quot;&gt;&lt;font style=&quot;font-size: 15px;&quot;&gt;&amp;nbsp;&lt;/font&gt;&lt;/div&gt;" style="shape=process;whiteSpace=wrap;html=1;backgroundOutline=1;align=center;fontFamily=Times New Roman;fontSize=15;" vertex="1" parent="1">
          <mxGeometry x="280" y="1716.62" width="260.89" height="84.79" as="geometry" />
        </mxCell>
        <mxCell id="MJfW1l7ggeRgLOib9L-R-7" style="edgeStyle=orthogonalEdgeStyle;rounded=0;orthogonalLoop=1;jettySize=auto;html=1;exitX=0.5;exitY=1;exitDx=0;exitDy=0;entryX=0.5;entryY=0;entryDx=0;entryDy=0;endArrow=none;endFill=0;fontFamily=Times New Roman;fontSize=15;" edge="1" parent="1" source="MJfW1l7ggeRgLOib9L-R-4" target="MJfW1l7ggeRgLOib9L-R-6">
          <mxGeometry relative="1" as="geometry" />
        </mxCell>
        <mxCell id="MJfW1l7ggeRgLOib9L-R-8" value="&lt;font style=&quot;font-size: 15px;&quot;&gt;Расстояние &lt;br&gt;distance := min(insert, delete, replace)&lt;/font&gt;" style="rounded=0;whiteSpace=wrap;html=1;fontFamily=Times New Roman;fontSize=15;" vertex="1" parent="1">
          <mxGeometry x="280" y="1813.52" width="262.53" height="84.79" as="geometry" />
        </mxCell>
        <mxCell id="MJfW1l7ggeRgLOib9L-R-9" style="edgeStyle=orthogonalEdgeStyle;rounded=0;orthogonalLoop=1;jettySize=auto;html=1;exitX=0.5;exitY=1;exitDx=0;exitDy=0;entryX=0.5;entryY=0;entryDx=0;entryDy=0;endArrow=none;endFill=0;fontFamily=Times New Roman;fontSize=15;" edge="1" parent="1" source="MJfW1l7ggeRgLOib9L-R-6" target="MJfW1l7ggeRgLOib9L-R-8">
          <mxGeometry relative="1" as="geometry" />
        </mxCell>
        <mxCell id="MJfW1l7ggeRgLOib9L-R-10" style="edgeStyle=orthogonalEdgeStyle;rounded=0;orthogonalLoop=1;jettySize=auto;html=1;exitX=0.5;exitY=1;exitDx=0;exitDy=0;entryX=0.5;entryY=0;entryDx=0;entryDy=0;endArrow=none;endFill=0;fontFamily=Times New Roman;fontSize=15;" edge="1" parent="1" source="MJfW1l7ggeRgLOib9L-R-11" target="MJfW1l7ggeRgLOib9L-R-3">
          <mxGeometry relative="1" as="geometry">
            <Array as="points">
              <mxPoint x="638" y="1480" />
              <mxPoint x="410" y="1480" />
              <mxPoint x="410" y="1523" />
            </Array>
            <mxPoint x="380.44499999999994" y="1458.03" as="targetPoint" />
          </mxGeometry>
        </mxCell>
        <mxCell id="MJfW1l7ggeRgLOib9L-R-11" value="&lt;font style=&quot;font-size: 15px;&quot;&gt;Совпадение&lt;br&gt;match := 0&lt;/font&gt;" style="rounded=0;whiteSpace=wrap;html=1;fontFamily=Times New Roman;fontSize=15;" vertex="1" parent="1">
          <mxGeometry x="550.0018565400844" y="1360.0001408450703" width="182.8181434599156" height="84.78873239436618" as="geometry" />
        </mxCell>
        <mxCell id="MJfW1l7ggeRgLOib9L-R-12" style="edgeStyle=orthogonalEdgeStyle;rounded=0;orthogonalLoop=1;jettySize=auto;html=1;entryX=0.5;entryY=0;entryDx=0;entryDy=0;endArrow=none;endFill=0;fontFamily=Times New Roman;fontSize=15;" edge="1" parent="1" source="MJfW1l7ggeRgLOib9L-R-2" target="MJfW1l7ggeRgLOib9L-R-11">
          <mxGeometry relative="1" as="geometry" />
        </mxCell>
        <mxCell id="MJfW1l7ggeRgLOib9L-R-13" style="edgeStyle=orthogonalEdgeStyle;rounded=0;orthogonalLoop=1;jettySize=auto;html=1;exitX=0.5;exitY=1;exitDx=0;exitDy=0;entryX=0.5;entryY=0;entryDx=0;entryDy=0;endArrow=none;endFill=0;fontFamily=Times New Roman;fontSize=15;" edge="1" parent="1" source="MJfW1l7ggeRgLOib9L-R-14" target="MJfW1l7ggeRgLOib9L-R-3">
          <mxGeometry relative="1" as="geometry">
            <Array as="points">
              <mxPoint x="201" y="1480" />
              <mxPoint x="410" y="1480" />
              <mxPoint x="410" y="1523" />
            </Array>
            <mxPoint x="380.44499999999994" y="1458.03" as="targetPoint" />
          </mxGeometry>
        </mxCell>
        <mxCell id="MJfW1l7ggeRgLOib9L-R-14" value="&lt;font style=&quot;font-size: 15px;&quot;&gt;Совпадение&lt;br&gt;match := 1&lt;/font&gt;" style="rounded=0;whiteSpace=wrap;html=1;fontFamily=Times New Roman;fontSize=15;" vertex="1" parent="1">
          <mxGeometry x="110" y="1360.0001408450703" width="182.8181434599156" height="84.78873239436618" as="geometry" />
        </mxCell>
        <mxCell id="MJfW1l7ggeRgLOib9L-R-15" style="edgeStyle=orthogonalEdgeStyle;rounded=0;orthogonalLoop=1;jettySize=auto;html=1;exitX=0;exitY=0.5;exitDx=0;exitDy=0;entryX=0.5;entryY=0;entryDx=0;entryDy=0;endArrow=none;endFill=0;fontFamily=Times New Roman;fontSize=15;" edge="1" parent="1" source="MJfW1l7ggeRgLOib9L-R-2" target="MJfW1l7ggeRgLOib9L-R-14">
          <mxGeometry relative="1" as="geometry" />
        </mxCell>
        <mxCell id="MJfW1l7ggeRgLOib9L-R-16" value="&lt;font style=&quot;font-size: 15px;&quot;&gt;matrix[i][j] := distance&lt;/font&gt;" style="rounded=0;whiteSpace=wrap;html=1;fontFamily=Times New Roman;fontSize=15;" vertex="1" parent="1">
          <mxGeometry x="280" y="1910.42" width="262.53" height="84.79" as="geometry" />
        </mxCell>
        <mxCell id="MJfW1l7ggeRgLOib9L-R-17" style="edgeStyle=orthogonalEdgeStyle;rounded=0;orthogonalLoop=1;jettySize=auto;html=1;exitX=0.5;exitY=1;exitDx=0;exitDy=0;entryX=0.5;entryY=0;entryDx=0;entryDy=0;endArrow=none;endFill=0;fontFamily=Times New Roman;fontSize=15;" edge="1" parent="1" source="MJfW1l7ggeRgLOib9L-R-8" target="MJfW1l7ggeRgLOib9L-R-16">
          <mxGeometry relative="1" as="geometry" />
        </mxCell>
        <mxCell id="MJfW1l7ggeRgLOib9L-R-18" value="&lt;font style=&quot;font-size: 15px;&quot;&gt;Б&lt;/font&gt;" style="strokeWidth=1;html=1;shape=mxgraph.flowchart.start_2;whiteSpace=wrap;fontFamily=Times New Roman;fontSize=15;" vertex="1" parent="1">
          <mxGeometry x="380.9989029535865" y="2019.4366197183099" width="65.29219409282702" height="60.56338028169014" as="geometry" />
        </mxCell>
        <mxCell id="MJfW1l7ggeRgLOib9L-R-19" style="edgeStyle=orthogonalEdgeStyle;rounded=0;orthogonalLoop=1;jettySize=auto;html=1;exitX=0.5;exitY=1;exitDx=0;exitDy=0;entryX=0.5;entryY=0;entryDx=0;entryDy=0;entryPerimeter=0;endArrow=none;endFill=0;fontFamily=Times New Roman;fontSize=15;" edge="1" parent="1" source="MJfW1l7ggeRgLOib9L-R-16" target="MJfW1l7ggeRgLOib9L-R-18">
          <mxGeometry relative="1" as="geometry" />
        </mxCell>
        <mxCell id="MJfW1l7ggeRgLOib9L-R-20" style="edgeStyle=orthogonalEdgeStyle;rounded=0;orthogonalLoop=1;jettySize=auto;html=1;exitX=0.5;exitY=1;exitDx=0;exitDy=0;exitPerimeter=0;entryX=0.5;entryY=0;entryDx=0;entryDy=0;endArrow=none;endFill=0;fontFamily=Times New Roman;fontSize=15;" edge="1" parent="1" source="MJfW1l7ggeRgLOib9L-R-21" target="MJfW1l7ggeRgLOib9L-R-2">
          <mxGeometry relative="1" as="geometry" />
        </mxCell>
        <mxCell id="MJfW1l7ggeRgLOib9L-R-21" value="&lt;font style=&quot;font-size: 15px;&quot;&gt;А&lt;/font&gt;" style="strokeWidth=1;html=1;shape=mxgraph.flowchart.start_2;whiteSpace=wrap;fontFamily=Times New Roman;fontSize=15;" vertex="1" parent="1">
          <mxGeometry x="386.8389029535865" y="1190" width="65.29219409282702" height="60.56338028169014" as="geometry" />
        </mxCell>
      </root>
    </mxGraphModel>
  </diagram>
  <diagram id="OOioS86bYQ8kBNAEoWLn" name="Рекурсивный Дамерау-Левенштейн">
    <mxGraphModel dx="1195" dy="1894" grid="1" gridSize="10" guides="1" tooltips="1" connect="1" arrows="1" fold="1" page="1" pageScale="1" pageWidth="827" pageHeight="1169" math="0" shadow="0">
      <root>
        <mxCell id="0" />
        <mxCell id="1" parent="0" />
        <mxCell id="abHcDo9MATNJz8Nnt2Ze-1" style="edgeStyle=orthogonalEdgeStyle;rounded=0;orthogonalLoop=1;jettySize=auto;html=1;exitX=0.5;exitY=1;exitDx=0;exitDy=0;exitPerimeter=0;entryX=0.5;entryY=0;entryDx=0;entryDy=0;endArrow=none;endFill=0;fontFamily=Times New Roman;fontSize=13;" edge="1" parent="1" source="abHcDo9MATNJz8Nnt2Ze-2" target="abHcDo9MATNJz8Nnt2Ze-7">
          <mxGeometry relative="1" as="geometry" />
        </mxCell>
        <mxCell id="abHcDo9MATNJz8Nnt2Ze-2" value="Начало" style="strokeWidth=1;html=1;shape=stencil(xVVNb4MwDP01HJmAaF17nFh37GWTdnap20YLCXKyfvz7hRrUUkpHc5nEAT/De36OrUQit1uoMMoSDSVG4i3Ksk+kUmpwhnzgM1uGJwmHew5nUw7BVlg4xnZAEpYKOWMdmW/cy5VrGKTeIklXZ8U8Sl79N/Uj8sJo7Umk0baTuch7MpDa/5scmCx5emaZYxNzVHmFEh1SBz2bWzAQZe/BSuk4pY8Apa6jVvcvpa/HldIwpXlI99JrsXRkBxcBxm7ITWcjDyxIrmV/3F1QM3tyo90NyIncI0MLKPIlFN8bMj96dbPICurl7iXadGl2eK5eXM33Pf8tg5L6gmEyfZwBqPAv1DC88C907JZ0iOEgbUzGQd2FDr0C2mDsaeK1gk0nZfeI1QXcHP3taicBhq9aNo7i/xyHnHChjMU7e+Dx3pSd0IHRFPnaEN6Z2bVUiu+moXXoEZxQvilPwC8=);whiteSpace=wrap;fontFamily=Times New Roman;fontSize=13;" vertex="1" parent="1">
          <mxGeometry x="310" y="30" width="300" height="40" as="geometry" />
        </mxCell>
        <mxCell id="abHcDo9MATNJz8Nnt2Ze-3" value="&lt;font style=&quot;font-size: 13px;&quot;&gt;&lt;br style=&quot;font-size: 13px;&quot;&gt;Рекурсивный алгоритм &lt;br style=&quot;font-size: 13px;&quot;&gt;Дамерау-Левенштейна.&lt;br style=&quot;font-size: 13px;&quot;&gt;Входные данные: str_1, &lt;br style=&quot;font-size: 13px;&quot;&gt;str_2 - строки,&lt;br style=&quot;font-size: 13px;&quot;&gt;Выходные данные: distance - целое,&lt;br style=&quot;font-size: 13px;&quot;&gt;&lt;br style=&quot;font-size: 13px;&quot;&gt;&lt;/font&gt;" style="strokeWidth=1;html=1;shape=mxgraph.flowchart.annotation_2;align=left;labelPosition=right;pointerEvents=1;fontFamily=Times New Roman;fontSize=13;" vertex="1" parent="1">
          <mxGeometry x="590" y="10" width="50" height="80" as="geometry" />
        </mxCell>
        <mxCell id="abHcDo9MATNJz8Nnt2Ze-4" style="edgeStyle=orthogonalEdgeStyle;rounded=0;orthogonalLoop=1;jettySize=auto;html=1;exitX=0;exitY=0.5;exitDx=0;exitDy=0;exitPerimeter=0;endArrow=none;endFill=0;dashed=1;fontFamily=Times New Roman;fontSize=13;" edge="1" parent="1">
          <mxGeometry relative="1" as="geometry">
            <mxPoint x="539" y="50" as="targetPoint" />
            <Array as="points" />
            <mxPoint x="590" y="50" as="sourcePoint" />
          </mxGeometry>
        </mxCell>
        <mxCell id="abHcDo9MATNJz8Nnt2Ze-5" style="edgeStyle=orthogonalEdgeStyle;rounded=0;orthogonalLoop=1;jettySize=auto;html=1;exitX=1;exitY=0.5;exitDx=0;exitDy=0;entryX=0.5;entryY=0;entryDx=0;entryDy=0;endArrow=none;endFill=0;fontFamily=Times New Roman;fontSize=13;" edge="1" parent="1" source="abHcDo9MATNJz8Nnt2Ze-7" target="abHcDo9MATNJz8Nnt2Ze-9">
          <mxGeometry relative="1" as="geometry" />
        </mxCell>
        <mxCell id="abHcDo9MATNJz8Nnt2Ze-6" style="edgeStyle=orthogonalEdgeStyle;rounded=0;orthogonalLoop=1;jettySize=auto;html=1;exitX=0;exitY=0.5;exitDx=0;exitDy=0;entryX=0.5;entryY=0;entryDx=0;entryDy=0;endArrow=none;endFill=0;fontFamily=Times New Roman;fontSize=13;" edge="1" parent="1" source="abHcDo9MATNJz8Nnt2Ze-7" target="abHcDo9MATNJz8Nnt2Ze-14">
          <mxGeometry relative="1" as="geometry" />
        </mxCell>
        <mxCell id="abHcDo9MATNJz8Nnt2Ze-7" value="&lt;font style=&quot;font-size: 13px;&quot;&gt;Длина строки str_1&lt;br style=&quot;font-size: 13px;&quot;&gt;или&amp;nbsp;str_2 равна 0?&lt;/font&gt;" style="rhombus;whiteSpace=wrap;html=1;fontFamily=Times New Roman;fontSize=13;" vertex="1" parent="1">
          <mxGeometry x="380" y="100" width="160" height="60" as="geometry" />
        </mxCell>
        <mxCell id="abHcDo9MATNJz8Nnt2Ze-8" style="edgeStyle=orthogonalEdgeStyle;rounded=0;orthogonalLoop=1;jettySize=auto;html=1;exitX=0.5;exitY=1;exitDx=0;exitDy=0;entryX=0.5;entryY=0;entryDx=0;entryDy=0;endArrow=none;endFill=0;fontFamily=Times New Roman;fontSize=13;" edge="1" parent="1" source="abHcDo9MATNJz8Nnt2Ze-9" target="abHcDo9MATNJz8Nnt2Ze-11">
          <mxGeometry relative="1" as="geometry" />
        </mxCell>
        <mxCell id="abHcDo9MATNJz8Nnt2Ze-9" value="len_str_1 := длина str_1&lt;br style=&quot;font-size: 13px;&quot;&gt;len_str_2 := длина str_2&amp;nbsp;" style="rounded=0;whiteSpace=wrap;html=1;fontFamily=Times New Roman;fontSize=13;" vertex="1" parent="1">
          <mxGeometry x="650" y="445" width="160" height="60" as="geometry" />
        </mxCell>
        <mxCell id="abHcDo9MATNJz8Nnt2Ze-10" style="edgeStyle=orthogonalEdgeStyle;rounded=0;orthogonalLoop=1;jettySize=auto;html=1;exitX=0.5;exitY=1;exitDx=0;exitDy=0;entryX=0.5;entryY=0;entryDx=0;entryDy=0;entryPerimeter=0;endArrow=none;endFill=0;fontFamily=Times New Roman;fontSize=13;" edge="1" parent="1" source="abHcDo9MATNJz8Nnt2Ze-11" target="abHcDo9MATNJz8Nnt2Ze-41">
          <mxGeometry relative="1" as="geometry">
            <Array as="points">
              <mxPoint x="730" y="940" />
              <mxPoint x="460" y="940" />
            </Array>
          </mxGeometry>
        </mxCell>
        <mxCell id="abHcDo9MATNJz8Nnt2Ze-11" value="distance := &lt;br&gt;|len_str_1 - len_str_2|" style="rounded=0;whiteSpace=wrap;html=1;fontFamily=Times New Roman;fontSize=13;" vertex="1" parent="1">
          <mxGeometry x="650" y="525" width="160" height="60" as="geometry" />
        </mxCell>
        <mxCell id="abHcDo9MATNJz8Nnt2Ze-12" style="edgeStyle=orthogonalEdgeStyle;rounded=0;orthogonalLoop=1;jettySize=auto;html=1;exitX=1;exitY=0.5;exitDx=0;exitDy=0;entryX=0.5;entryY=0;entryDx=0;entryDy=0;endArrow=none;endFill=0;fontFamily=Times New Roman;fontSize=13;" edge="1" parent="1" source="abHcDo9MATNJz8Nnt2Ze-14" target="abHcDo9MATNJz8Nnt2Ze-16">
          <mxGeometry relative="1" as="geometry" />
        </mxCell>
        <mxCell id="abHcDo9MATNJz8Nnt2Ze-13" style="edgeStyle=orthogonalEdgeStyle;rounded=0;orthogonalLoop=1;jettySize=auto;html=1;exitX=0;exitY=0.5;exitDx=0;exitDy=0;entryX=0.5;entryY=0;entryDx=0;entryDy=0;endArrow=none;endFill=0;fontFamily=Times New Roman;fontSize=13;" edge="1" parent="1" source="abHcDo9MATNJz8Nnt2Ze-14" target="abHcDo9MATNJz8Nnt2Ze-18">
          <mxGeometry relative="1" as="geometry" />
        </mxCell>
        <mxCell id="abHcDo9MATNJz8Nnt2Ze-14" value="&lt;span style=&quot;font-size: 13px;&quot;&gt;Расстояние str_1[-1]&lt;br&gt;&amp;nbsp;равно str_2[-1]?&lt;/span&gt;" style="rhombus;whiteSpace=wrap;html=1;fontFamily=Times New Roman;fontSize=13;" vertex="1" parent="1">
          <mxGeometry x="210" y="150" width="160" height="80" as="geometry" />
        </mxCell>
        <mxCell id="abHcDo9MATNJz8Nnt2Ze-15" style="edgeStyle=orthogonalEdgeStyle;rounded=0;orthogonalLoop=1;jettySize=auto;html=1;entryX=0.5;entryY=0;entryDx=0;entryDy=0;endArrow=none;endFill=0;fontFamily=Times New Roman;fontSize=13;" edge="1" parent="1" source="abHcDo9MATNJz8Nnt2Ze-16" target="abHcDo9MATNJz8Nnt2Ze-22">
          <mxGeometry relative="1" as="geometry" />
        </mxCell>
        <mxCell id="abHcDo9MATNJz8Nnt2Ze-16" value="distance := abs(len_str_1 - len_str_2)" style="rounded=0;whiteSpace=wrap;html=1;fontFamily=Times New Roman;fontSize=13;" vertex="1" parent="1">
          <mxGeometry x="370" y="230" width="160" height="60" as="geometry" />
        </mxCell>
        <mxCell id="abHcDo9MATNJz8Nnt2Ze-17" style="edgeStyle=orthogonalEdgeStyle;rounded=0;orthogonalLoop=1;jettySize=auto;html=1;exitX=0.5;exitY=1;exitDx=0;exitDy=0;entryX=0.5;entryY=0;entryDx=0;entryDy=0;endArrow=none;endFill=0;fontFamily=Times New Roman;fontSize=13;" edge="1" parent="1" source="abHcDo9MATNJz8Nnt2Ze-18" target="abHcDo9MATNJz8Nnt2Ze-22">
          <mxGeometry relative="1" as="geometry" />
        </mxCell>
        <mxCell id="abHcDo9MATNJz8Nnt2Ze-18" value="distance := &lt;br&gt;|len(str_1) - len(str_2)|" style="rounded=0;whiteSpace=wrap;html=1;fontFamily=Times New Roman;fontSize=13;" vertex="1" parent="1">
          <mxGeometry x="50" y="230" width="160" height="60" as="geometry" />
        </mxCell>
        <mxCell id="abHcDo9MATNJz8Nnt2Ze-19" value="да" style="text;html=1;align=center;verticalAlign=middle;resizable=0;points=[];autosize=1;strokeColor=none;fontFamily=Times New Roman;fontSize=13;" vertex="1" parent="1">
          <mxGeometry x="394" y="165" width="40" height="30" as="geometry" />
        </mxCell>
        <mxCell id="abHcDo9MATNJz8Nnt2Ze-20" value="да" style="text;html=1;align=center;verticalAlign=middle;resizable=0;points=[];autosize=1;strokeColor=none;fontFamily=Times New Roman;fontSize=13;" vertex="1" parent="1">
          <mxGeometry x="575" y="105" width="40" height="30" as="geometry" />
        </mxCell>
        <mxCell id="abHcDo9MATNJz8Nnt2Ze-21" style="edgeStyle=orthogonalEdgeStyle;rounded=0;orthogonalLoop=1;jettySize=auto;html=1;exitX=0.5;exitY=1;exitDx=0;exitDy=0;entryX=0.5;entryY=0;entryDx=0;entryDy=0;endArrow=none;endFill=0;fontFamily=Times New Roman;fontSize=13;" edge="1" parent="1" source="abHcDo9MATNJz8Nnt2Ze-22" target="abHcDo9MATNJz8Nnt2Ze-24">
          <mxGeometry relative="1" as="geometry" />
        </mxCell>
        <mxCell id="abHcDo9MATNJz8Nnt2Ze-22" value="insert := ДамерауЛевенштейн(&lt;br&gt;str_1,&amp;nbsp;str_2[:-1]) + 1" style="rounded=0;whiteSpace=wrap;html=1;fontFamily=Times New Roman;fontSize=13;" vertex="1" parent="1">
          <mxGeometry x="210" y="330" width="160" height="60" as="geometry" />
        </mxCell>
        <mxCell id="abHcDo9MATNJz8Nnt2Ze-23" style="edgeStyle=orthogonalEdgeStyle;rounded=0;orthogonalLoop=1;jettySize=auto;html=1;exitX=0.5;exitY=1;exitDx=0;exitDy=0;entryX=0.5;entryY=0;entryDx=0;entryDy=0;endArrow=none;endFill=0;fontFamily=Times New Roman;fontSize=13;" edge="1" parent="1" source="abHcDo9MATNJz8Nnt2Ze-24" target="abHcDo9MATNJz8Nnt2Ze-26">
          <mxGeometry relative="1" as="geometry" />
        </mxCell>
        <mxCell id="abHcDo9MATNJz8Nnt2Ze-24" value="delete := ДамерауЛевенштейн(&lt;br&gt;str_1[:-1],&amp;nbsp;str_2) + 1" style="rounded=0;whiteSpace=wrap;html=1;fontFamily=Times New Roman;fontSize=13;" vertex="1" parent="1">
          <mxGeometry x="210" y="410" width="160" height="60" as="geometry" />
        </mxCell>
        <mxCell id="abHcDo9MATNJz8Nnt2Ze-25" style="edgeStyle=orthogonalEdgeStyle;rounded=0;orthogonalLoop=1;jettySize=auto;html=1;exitX=0.5;exitY=1;exitDx=0;exitDy=0;entryX=0.5;entryY=0;entryDx=0;entryDy=0;endArrow=none;endFill=0;fontFamily=Times New Roman;fontSize=13;" edge="1" parent="1" source="abHcDo9MATNJz8Nnt2Ze-26" target="abHcDo9MATNJz8Nnt2Ze-29">
          <mxGeometry relative="1" as="geometry" />
        </mxCell>
        <mxCell id="abHcDo9MATNJz8Nnt2Ze-26" value="replace := ДамерауЛевенштейн(&lt;br&gt;str_1[:-1],&amp;nbsp;str_2[:-1]) + match" style="rounded=0;whiteSpace=wrap;html=1;fontFamily=Times New Roman;fontSize=13;" vertex="1" parent="1">
          <mxGeometry x="210" y="490" width="160" height="60" as="geometry" />
        </mxCell>
        <mxCell id="abHcDo9MATNJz8Nnt2Ze-27" style="edgeStyle=orthogonalEdgeStyle;rounded=0;orthogonalLoop=1;jettySize=auto;html=1;exitX=1;exitY=0.5;exitDx=0;exitDy=0;entryX=0.5;entryY=0;entryDx=0;entryDy=0;endArrow=none;endFill=0;fontFamily=Times New Roman;fontSize=13;" edge="1" parent="1" source="abHcDo9MATNJz8Nnt2Ze-29" target="abHcDo9MATNJz8Nnt2Ze-32">
          <mxGeometry relative="1" as="geometry" />
        </mxCell>
        <mxCell id="abHcDo9MATNJz8Nnt2Ze-28" style="edgeStyle=orthogonalEdgeStyle;rounded=0;orthogonalLoop=1;jettySize=auto;html=1;exitX=0;exitY=0.5;exitDx=0;exitDy=0;endArrow=none;endFill=0;fontFamily=Times New Roman;fontSize=13;" edge="1" parent="1" source="abHcDo9MATNJz8Nnt2Ze-29">
          <mxGeometry relative="1" as="geometry">
            <mxPoint x="460" y="940" as="targetPoint" />
            <Array as="points">
              <mxPoint x="190" y="610" />
              <mxPoint x="190" y="920" />
              <mxPoint x="330" y="920" />
              <mxPoint x="330" y="940" />
            </Array>
          </mxGeometry>
        </mxCell>
        <mxCell id="abHcDo9MATNJz8Nnt2Ze-29" value="&lt;font style=&quot;font-size: 13px;&quot;&gt;&lt;br style=&quot;font-size: 13px;&quot;&gt;len(str_1) &amp;gt; 1 и &lt;br style=&quot;font-size: 13px;&quot;&gt;len(str_2) &amp;gt; 1&lt;br style=&quot;font-size: 13px;&quot;&gt;?&lt;/font&gt;&lt;span style=&quot;font-size: 13px;&quot;&gt;&lt;br style=&quot;font-size: 13px;&quot;&gt;&lt;/span&gt;" style="rhombus;whiteSpace=wrap;html=1;fontFamily=Times New Roman;fontSize=13;" vertex="1" parent="1">
          <mxGeometry x="210" y="570" width="160" height="80" as="geometry" />
        </mxCell>
        <mxCell id="abHcDo9MATNJz8Nnt2Ze-30" style="edgeStyle=orthogonalEdgeStyle;rounded=0;orthogonalLoop=1;jettySize=auto;html=1;exitX=1;exitY=0.5;exitDx=0;exitDy=0;entryX=0.5;entryY=0;entryDx=0;entryDy=0;endArrow=none;endFill=0;fontFamily=Times New Roman;fontSize=13;" edge="1" parent="1" source="abHcDo9MATNJz8Nnt2Ze-32" target="abHcDo9MATNJz8Nnt2Ze-35">
          <mxGeometry relative="1" as="geometry" />
        </mxCell>
        <mxCell id="abHcDo9MATNJz8Nnt2Ze-31" style="edgeStyle=orthogonalEdgeStyle;rounded=0;orthogonalLoop=1;jettySize=auto;html=1;exitX=0;exitY=0.5;exitDx=0;exitDy=0;entryX=0.5;entryY=0;entryDx=0;entryDy=0;endArrow=none;endFill=0;fontFamily=Times New Roman;fontSize=13;" edge="1" parent="1" source="abHcDo9MATNJz8Nnt2Ze-32" target="abHcDo9MATNJz8Nnt2Ze-37">
          <mxGeometry relative="1" as="geometry" />
        </mxCell>
        <mxCell id="abHcDo9MATNJz8Nnt2Ze-32" value="&lt;span style=&quot;font-size: 13px;&quot;&gt;&lt;br style=&quot;font-size: 13px;&quot;&gt;str_1[-1] равен str_2[-2]&lt;br style=&quot;font-size: 13px;&quot;&gt;и&amp;nbsp;&lt;/span&gt;&lt;span style=&quot;font-size: 13px;&quot;&gt;str_1[-2] равен &lt;br style=&quot;font-size: 13px;&quot;&gt;str_2[-1]?&lt;/span&gt;&lt;span style=&quot;font-size: 13px;&quot;&gt;&lt;br style=&quot;font-size: 13px;&quot;&gt;&lt;/span&gt;" style="rhombus;whiteSpace=wrap;html=1;fontFamily=Times New Roman;fontSize=13;" vertex="1" parent="1">
          <mxGeometry x="370" y="640" width="160" height="80" as="geometry" />
        </mxCell>
        <mxCell id="abHcDo9MATNJz8Nnt2Ze-33" value="да" style="text;html=1;align=center;verticalAlign=middle;resizable=0;points=[];autosize=1;strokeColor=none;fontFamily=Times New Roman;fontSize=13;" vertex="1" parent="1">
          <mxGeometry x="394" y="585" width="40" height="30" as="geometry" />
        </mxCell>
        <mxCell id="abHcDo9MATNJz8Nnt2Ze-34" style="edgeStyle=orthogonalEdgeStyle;rounded=0;orthogonalLoop=1;jettySize=auto;html=1;exitX=0.5;exitY=1;exitDx=0;exitDy=0;entryX=0.5;entryY=0;entryDx=0;entryDy=0;endArrow=none;endFill=0;fontFamily=Times New Roman;fontSize=13;" edge="1" parent="1" source="abHcDo9MATNJz8Nnt2Ze-35" target="abHcDo9MATNJz8Nnt2Ze-40">
          <mxGeometry relative="1" as="geometry" />
        </mxCell>
        <mxCell id="abHcDo9MATNJz8Nnt2Ze-35" value="transpose := ДамерауЛевенштейн(&lt;br&gt;str_1[:-1],&amp;nbsp;str_2[:-1]) + 1" style="rounded=0;whiteSpace=wrap;html=1;fontFamily=Times New Roman;fontSize=13;" vertex="1" parent="1">
          <mxGeometry x="540" y="740" width="160" height="60" as="geometry" />
        </mxCell>
        <mxCell id="abHcDo9MATNJz8Nnt2Ze-36" style="edgeStyle=orthogonalEdgeStyle;rounded=0;orthogonalLoop=1;jettySize=auto;html=1;exitX=0.5;exitY=1;exitDx=0;exitDy=0;endArrow=none;endFill=0;fontFamily=Times New Roman;fontSize=13;" edge="1" parent="1" source="abHcDo9MATNJz8Nnt2Ze-37">
          <mxGeometry relative="1" as="geometry">
            <Array as="points">
              <mxPoint x="280" y="900" />
              <mxPoint x="460" y="900" />
            </Array>
            <mxPoint x="460" y="920" as="targetPoint" />
          </mxGeometry>
        </mxCell>
        <mxCell id="abHcDo9MATNJz8Nnt2Ze-37" value="Расстояние&lt;br&gt;distance := min(insert, delete, replace)" style="rounded=0;whiteSpace=wrap;html=1;fontFamily=Times New Roman;fontSize=13;" vertex="1" parent="1">
          <mxGeometry x="200" y="740" width="160" height="60" as="geometry" />
        </mxCell>
        <mxCell id="abHcDo9MATNJz8Nnt2Ze-38" value="да" style="text;html=1;align=center;verticalAlign=middle;resizable=0;points=[];autosize=1;strokeColor=none;fontFamily=Times New Roman;fontSize=13;" vertex="1" parent="1">
          <mxGeometry x="555" y="655" width="40" height="30" as="geometry" />
        </mxCell>
        <mxCell id="abHcDo9MATNJz8Nnt2Ze-39" style="edgeStyle=orthogonalEdgeStyle;rounded=0;orthogonalLoop=1;jettySize=auto;html=1;exitX=0.5;exitY=1;exitDx=0;exitDy=0;endArrow=none;endFill=0;fontFamily=Times New Roman;fontSize=13;" edge="1" parent="1" source="abHcDo9MATNJz8Nnt2Ze-40">
          <mxGeometry relative="1" as="geometry">
            <mxPoint x="330" y="920" as="targetPoint" />
            <Array as="points">
              <mxPoint x="620" y="900" />
              <mxPoint x="460" y="900" />
              <mxPoint x="460" y="920" />
            </Array>
          </mxGeometry>
        </mxCell>
        <mxCell id="abHcDo9MATNJz8Nnt2Ze-40" value="Расстояние&lt;br&gt;distance := min(insert, delete, replace, transpose)" style="rounded=0;whiteSpace=wrap;html=1;fontFamily=Times New Roman;fontSize=13;" vertex="1" parent="1">
          <mxGeometry x="540" y="820" width="160" height="60" as="geometry" />
        </mxCell>
        <mxCell id="abHcDo9MATNJz8Nnt2Ze-41" value="Конец" style="strokeWidth=1;html=1;shape=stencil(xVVNb4MwDP01HJmAaF17nFh37GWTdnap20YLCXKyfvz7hRrUUkpHc5nEAT/De36OrUQit1uoMMoSDSVG4i3Ksk+kUmpwhnzgM1uGJwmHew5nUw7BVlg4xnZAEpYKOWMdmW/cy5VrGKTeIklXZ8U8Sl79N/Uj8sJo7Umk0baTuch7MpDa/5scmCx5emaZYxNzVHmFEh1SBz2bWzAQZe/BSuk4pY8Apa6jVvcvpa/HldIwpXlI99JrsXRkBxcBxm7ITWcjDyxIrmV/3F1QM3tyo90NyIncI0MLKPIlFN8bMj96dbPICurl7iXadGl2eK5eXM33Pf8tg5L6gmEyfZwBqPAv1DC88C907JZ0iOEgbUzGQd2FDr0C2mDsaeK1gk0nZfeI1QXcHP3taicBhq9aNo7i/xyHnHChjMU7e+Dx3pSd0IHRFPnaEN6Z2bVUiu+moXXoEZxQvilPwC8=);whiteSpace=wrap;fontFamily=Times New Roman;fontSize=13;" vertex="1" parent="1">
          <mxGeometry x="310" y="960" width="300" height="40" as="geometry" />
        </mxCell>
      </root>
    </mxGraphModel>
  </diagram>
</mxfile>
